<svg xmlns="http://www.w3.org/2000/svg" xmlns:xlink="http://www.w3.org/1999/xlink" viewBox="0 0 113.168 128.609">
  <defs>
    <style>
      .cls-1 {
        fill: none;
      }

      .cls-2 {
        clip-path: url(#clip-path);
      }

      .cls-3 {
        fill: #908f90;
      }
    </style>
    <clipPath id="clip-path">
      <path id="Path_818" data-name="Path 818" class="cls-1" d="M0,0H113.168V-128.609H0Z"/>
    </clipPath>
  </defs>
  <g id="Group_464" data-name="Group 464" transform="translate(0 128.609)">
    <g id="Group_463" data-name="Group 463" class="cls-2">
      <g id="Group_458" data-name="Group 458" transform="translate(7.861 -50.827)">
        <path id="Path_813" data-name="Path 813" class="cls-3" d="M0,0C-3.291,0-4.022-.987-4.022-.987V-4.863H-7.861v7.02S-5.594,3.62,0,3.62c10.238,0,10.494-7.35,10.494-8.593,0-11.006-13.09-6.033-13.09-12.1,0-3.218,3.656-3.693,5.3-3.693a7.14,7.14,0,0,1,2.523.366v2.815H8.995V-23.8a22.09,22.09,0,0,0-6-.622c-9.031,0-10.348,5.266-10.348,7.569C-7.35-6.4,5.924-12.213,5.924-4.827,5.924-3.949,5.777,0,0,0M16.454,2.669l2.56-6.911H29.435l2.559,6.911H37.7V-.951H35.724l-8.958-22.6h-8.41v3.62H20.33l-8.922,22.6ZM20.33-7.9l3.73-10.348c.036-.11.073-.183.109-.183s.074.073.11.183L28.118-7.9ZM54.738-5.631c0,.11-.036.146-.073.146-.073,0-.146-.146-.146-.146l-8.557-17.88h-7.9v3.62h2.011V2.669h4.5c0-.4-.146-20.184-.146-20.184s0-.292.109-.292c.037,0,.11.073.22.256l9.653,20.22h4.534V-23.548H54.409c0,.695.329,17.917.329,17.917M78.066-19.965v3.145H81.8v-6.728H61.5v6.728h3.73v-3.108H69.4v22.6h4.5V-19.965Zm27.241,9.544c0-6.838-2.084-13.749-11.189-13.749-8.739,0-11.226,6.911-11.226,13.749,0,6.874,2.121,13.785,11.226,13.785,8.7,0,11.189-6.911,11.189-13.785m-11.189-10.2c4.388,0,6.509,3.108,6.509,10.2,0,7.13-2.121,10.238-6.509,10.238-4.424,0-6.545-3.108-6.545-10.238,0-7.094,2.121-10.2,6.545-10.2"/>
      </g>
      <g id="Group_459" data-name="Group 459" transform="translate(33.785 -98.983)">
        <path id="Path_814" data-name="Path 814" class="cls-3" d="M0,0C0-7.569-5.594-7.569-8.776-7.569h-11.81v3.62h1.974v22.6h4.5V7.606h5.375C-6.545,7.606,0,7.386,0,0M-8.958,4.022c-.8,0-5.156-.036-5.156-.036V-3.949H-8.7c1.645,0,4.168.037,4.168,3.876,0,3.912-3.291,4.095-4.424,4.095M2.3,18.648l2.56-6.911H15.285l2.559,6.911h5.7v-3.62H21.574l-8.959-22.6H4.2v3.62H6.18l-8.922,22.6ZM6.18,8.081,9.91-2.267c.036-.11.073-.183.109-.183s.073.073.11.183L13.968,8.081ZM30.423-7.569H23.914v3.62h2.011v22.6h16.93V11.993H39.162v3.035H30.423ZM65.635,5.558c0-6.838-2.084-13.749-11.189-13.749-8.739,0-11.225,6.911-11.225,13.749,0,6.874,2.12,13.785,11.225,13.785,8.7,0,11.189-6.911,11.189-13.785M54.446-4.644c4.388,0,6.509,3.108,6.509,10.2,0,7.13-2.121,10.238-6.509,10.238-4.424,0-6.545-3.108-6.545-10.238,0-7.094,2.121-10.2,6.545-10.2"/>
      </g>
      <g id="Group_460" data-name="Group 460" transform="translate(25.028)">
        <path id="Path_815" data-name="Path 815" class="cls-3" d="M0,0A12.415,12.415,0,0,0,3.808-.56v-3a12.43,12.43,0,0,1-3.556.672c-7.28,0-7.28-6.328-7.28-7.532a7.287,7.287,0,0,1,7.476-7.56v3.388h2.8v-6.3S2.24-21,1.568-21C-8.484-21-10.64-13.384-10.64-10.444-10.64-6.8-9.632,0,0,0M22.652-10.556c0-5.236-1.6-10.528-8.568-10.528-6.692,0-8.6,5.292-8.6,10.528C5.488-5.292,7.112,0,14.084,0c6.664,0,8.568-5.292,8.568-10.556m-8.568-7.812c3.36,0,4.984,2.38,4.984,7.812,0,5.46-1.624,7.84-4.984,7.84-3.388,0-5.012-2.38-5.012-7.84,0-5.432,1.624-7.812,5.012-7.812m25.732,3.556c0-5.8-4.284-5.8-6.72-5.8H24.052v2.772h1.512v17.3h3.444V-8.988h4.116c1.68,0,6.692-.168,6.692-5.824m-6.86,3.08c-.616,0-3.948-.028-3.948-.028v-6.076h4.144c1.26,0,3.192.028,3.192,2.968,0,3-2.52,3.136-3.388,3.136M42.14-.532,44.1-5.824h7.98L54.04-.532h4.368V-3.3H56.9l-6.86-17.3H43.6v2.772h1.512L38.276-.532Zm2.968-8.092,2.856-7.924c.028-.084.056-.14.084-.14s.056.056.084.14l2.94,7.924ZM64.232-20.608H59.248v2.772h1.54v17.3H73.752v-5.1H70.924V-3.3H64.232Z"/>
      </g>
      <g id="Group_461" data-name="Group 461" transform="translate(51.694 -29.752)">
        <path id="Path_816" data-name="Path 816" class="cls-3" d="M0,0A.216.216,0,0,0-.04-.14C-.2-.42-.9-1.28-.9-1.28A3.411,3.411,0,0,1-4.02.76,2.5,2.5,0,0,1-6.72-1.9c0-2.32,1.42-3.16,2.44-3.16a1.641,1.641,0,0,1,.68.12v1.36h1.84V-6.62a7.162,7.162,0,0,0-1.98-.3c-4.68,0-5.18,3.64-5.18,5.06,0,1.44.54,4.44,4.54,4.44C-1.18,2.58,0,.58,0,0M7.66-2.2c0-2.28-1.14-4.74-4.36-4.74-3.14,0-4.36,2.6-4.36,4.74C-1.06.14.14,2.54,3.3,2.54c3.14,0,4.36-2.58,4.36-4.74m-6.48,0c0-1.24.48-2.92,2.12-2.92,1.62,0,2.1,1.68,2.1,2.92C5.4-.94,4.92.74,3.3.74,1.66.74,1.18-.94,1.18-2.2M11.5-5.74c-.04.04-.06.06-.08.06s-.02-.02-.02-.06v-.84H9.38A3.312,3.312,0,0,1,7.9-4.02a6.658,6.658,0,0,1-2.92.5c-.26,0-.54,0-.82-.02v1.72c.28.02.58.02.88.02A6.937,6.937,0,0,0,9.28-2.92c.04-.02.06-.04.08-.04s.02.06.02.06V2.22H11.5s.02-4.16.02-4.68c0-1.24.68-2.32,1.92-2.32a1.272,1.272,0,0,1,1.32,1.32V0a2.394,2.394,0,0,0,2.5,2.46A3.013,3.013,0,0,0,20.32.24a.437.437,0,0,0-.06-.18l-.82-1.14C19.06.06,18.38.32,17.88.32a1.006,1.006,0,0,1-1-1.14V-4.06a2.586,2.586,0,0,0-2.86-2.72A3.183,3.183,0,0,0,11.5-5.74"/>
      </g>
      <g id="Group_462" data-name="Group 462" transform="translate(23.179 -121.49)">
        <path id="Path_817" data-name="Path 817" class="cls-3" d="M0,0A3.256,3.256,0,0,0,2.189.659,4.278,4.278,0,0,0,3.825.385,2.154,2.154,0,0,0,4.84-.454,2.215,2.215,0,0,0,5.2-1.664a2.234,2.234,0,0,0-.3-1.2,2.117,2.117,0,0,0-.831-.764A7.418,7.418,0,0,0,2.43-4.166a3.973,3.973,0,0,1-1.394-.5A.577.577,0,0,1,.81-5.124a.547.547,0,0,1,.241-.467,1.735,1.735,0,0,1,1.036-.272,1.531,1.531,0,0,1,.961.254,1.287,1.287,0,0,1,.418.833l1.517-.066A2.187,2.187,0,0,0,4.232-6.5,3.171,3.171,0,0,0,2.1-7.119a3.744,3.744,0,0,0-1.479.262A2.034,2.034,0,0,0-.315-6.1,1.932,1.932,0,0,0-.641-5.022,1.958,1.958,0,0,0,.051-3.509a4.125,4.125,0,0,0,1.713.743q.948.236,1.215.328a1.254,1.254,0,0,1,.546.326.683.683,0,0,1,.156.453.924.924,0,0,1-.372.726,1.686,1.686,0,0,1-1.1.31,1.633,1.633,0,0,1-1.1-.349A1.8,1.8,0,0,1,.564-2.064L-.913-1.92A2.866,2.866,0,0,0,0,0M7.89-3.789a1.032,1.032,0,0,1,.6-.151,1.225,1.225,0,0,1,.774.177.744.744,0,0,1,.2.592v.144a7.837,7.837,0,0,1-1.4.353,4.853,4.853,0,0,0-1.146.336,1.44,1.44,0,0,0-.618.554,1.547,1.547,0,0,0-.22.823A1.515,1.515,0,0,0,6.57.192,1.853,1.853,0,0,0,7.9.649a2.26,2.26,0,0,0,.9-.18,2.589,2.589,0,0,0,.789-.538c.011.027.028.084.052.169q.081.282.138.426H11.2A3.116,3.116,0,0,1,10.938-.2a5.854,5.854,0,0,1-.069-1.059l.016-1.681a2.972,2.972,0,0,0-.193-1.29,1.428,1.428,0,0,0-.664-.579,3.447,3.447,0,0,0-1.435-.228,2.777,2.777,0,0,0-1.6.379,2.038,2.038,0,0,0-.759,1.169l1.308.236a1.057,1.057,0,0,1,.348-.531M9.469-1.8a2.828,2.828,0,0,1-.056.7.906.906,0,0,1-.343.477,1.248,1.248,0,0,1-.744.256.787.787,0,0,1-.574-.22.708.708,0,0,1-.226-.523.6.6,0,0,1,.282-.508,2.664,2.664,0,0,1,.785-.251,8.979,8.979,0,0,0,.876-.22ZM12.3-6.991V.526h1.44V-2.2a3.14,3.14,0,0,1,.131-1.038,1.006,1.006,0,0,1,.413-.526,1.194,1.194,0,0,1,.641-.174.927.927,0,0,1,.52.136.717.717,0,0,1,.29.366,4.3,4.3,0,0,1,.082,1.087V.526h1.44V-2.669a5.73,5.73,0,0,0-.074-1.081,1.712,1.712,0,0,0-.277-.636,1.472,1.472,0,0,0-.6-.472,2.12,2.12,0,0,0-.9-.184,2.123,2.123,0,0,0-1.666.815V-6.991ZM23.64.526V-4.919H22.2v2.3a5.808,5.808,0,0,1-.108,1.468,1.032,1.032,0,0,1-.4.5,1.133,1.133,0,0,1-.661.2A.887.887,0,0,1,20.5-.6a.762.762,0,0,1-.29-.41,6.922,6.922,0,0,1-.08-1.407v-2.5h-1.44v3.445a3.019,3.019,0,0,0,.195,1.2,1.424,1.424,0,0,0,.63.677A2.01,2.01,0,0,0,20.5.649,2.186,2.186,0,0,0,21.52.4,2.089,2.089,0,0,0,22.3-.29V.526Zm1.385,0h1.44V-2.12a3.844,3.844,0,0,1,.116-1.123.988.988,0,0,1,.382-.518,1.05,1.05,0,0,1,.6-.179A.757.757,0,0,1,28-3.827a.648.648,0,0,1,.238.343,4.106,4.106,0,0,1,.077,1.026V.526h1.441V-2.089a3.883,3.883,0,0,1,.118-1.126,1.023,1.023,0,0,1,.384-.54.977.977,0,0,1,.569-.185.683.683,0,0,1,.616.308,2.315,2.315,0,0,1,.148,1.045V.526h1.441V-2.956a3.108,3.108,0,0,0-.149-1.128,1.491,1.491,0,0,0-.62-.715,1.979,1.979,0,0,0-1.015-.243,1.893,1.893,0,0,0-.887.215,2.523,2.523,0,0,0-.774.651,1.664,1.664,0,0,0-.631-.651,1.822,1.822,0,0,0-.907-.215,2.137,2.137,0,0,0-1.7.866v-.743H25.025ZM37.273-.613a.884.884,0,0,1-.569.185,1.092,1.092,0,0,1-.831-.356,1.459,1.459,0,0,1-.348-1h3.609a3.543,3.543,0,0,0-.672-2.458,2.415,2.415,0,0,0-1.917-.8,2.328,2.328,0,0,0-1.789.766,3.006,3.006,0,0,0-.708,2.12,3.125,3.125,0,0,0,.538,1.877,2.439,2.439,0,0,0,2.1.928A2.568,2.568,0,0,0,38.183.236a2.353,2.353,0,0,0,.874-1.2l-1.435-.241a1.141,1.141,0,0,1-.349.594M35.55-2.663a1.334,1.334,0,0,1,.3-.934,1,1,0,0,1,.779-.343.992.992,0,0,1,.749.325,1.4,1.4,0,0,1,.323.952Zm6.137,1.507a8.5,8.5,0,0,1,.121-1.825,1.137,1.137,0,0,1,.33-.6.8.8,0,0,1,.513-.166,1.265,1.265,0,0,1,.677.235l.446-1.256a1.828,1.828,0,0,0-.949-.271,1.134,1.134,0,0,0-.622.174,2.32,2.32,0,0,0-.618.723v-.774H40.247V.526h1.44Zm4.148-5.835H44.394v1.333h1.441Zm0,1.333,0,.739H44.394V.526h1.441Zm0,5.445,1.5-1.208A2.317,2.317,0,0,0,48.365.31a3.158,3.158,0,0,0,1.428.339A2.692,2.692,0,0,0,51.8-.164a2.8,2.8,0,0,0,.8-2.048,2.774,2.774,0,0,0-.789-2.028,2.72,2.72,0,0,0-2.025-.8,2.988,2.988,0,0,0-1.449.353,2.431,2.431,0,0,0-1,1.026,2.944,2.944,0,0,0-.354,1.389,3.3,3.3,0,0,0,.354,1.592m1.507-2.756a1.223,1.223,0,0,1,.949-.43,1.214,1.214,0,0,1,.946.43,1.8,1.8,0,0,1,.382,1.231,1.832,1.832,0,0,1-.382,1.251,1.214,1.214,0,0,1-.946.43,1.223,1.223,0,0,1-.949-.43A1.806,1.806,0,0,1,48.455-2.2a1.806,1.806,0,0,1,.384-1.241m12.8-3.553H60.2v2.707a2.042,2.042,0,0,0-1.58-.758,2.122,2.122,0,0,0-1.645.72,3.041,3.041,0,0,0-.651,2.105,3.075,3.075,0,0,0,.669,2.109A2.071,2.071,0,0,0,58.6.649,2.018,2.018,0,0,0,59.511.42,2.154,2.154,0,0,0,60.3-.274v.8h1.338Zm-3.5,3.459A1.083,1.083,0,0,1,59-3.94a1.07,1.07,0,0,1,.866.413A2.133,2.133,0,0,1,60.2-2.176a1.953,1.953,0,0,1-.349,1.263,1.059,1.059,0,0,1-.846.423,1.088,1.088,0,0,1-.974-.564,2.487,2.487,0,0,1-.241-1.261,1.837,1.837,0,0,1,.346-1.217M65.861-.613a.884.884,0,0,1-.569.185,1.092,1.092,0,0,1-.831-.356,1.459,1.459,0,0,1-.348-1h3.609A3.548,3.548,0,0,0,67.05-4.24a2.415,2.415,0,0,0-1.917-.8,2.328,2.328,0,0,0-1.789.766,3.006,3.006,0,0,0-.708,2.12,3.118,3.118,0,0,0,.538,1.877,2.439,2.439,0,0,0,2.1.928,2.571,2.571,0,0,0,1.5-.413,2.358,2.358,0,0,0,.874-1.2l-1.436-.241a1.133,1.133,0,0,1-.348.594m-1.723-2.05a1.334,1.334,0,0,1,.3-.934,1,1,0,0,1,.779-.343.993.993,0,0,1,.749.325,1.4,1.4,0,0,1,.323.952Z"/>
      </g>
    </g>
  </g>
</svg>
