<svg xmlns="http://www.w3.org/2000/svg" xmlns:xlink="http://www.w3.org/1999/xlink" viewBox="0 0 109.09 64"><defs><style>.cls-1{fill:none;}.cls-2{clip-path:url(#clip-path);}.cls-3{fill:#1d1d1b;}</style><clipPath id="clip-path" transform="translate(0 0)"><rect class="cls-1" width="109.09" height="64"/></clipPath></defs><title>Recurso 1</title><g id="Capa_2" data-name="Capa 2"><g id="Capa_1-2" data-name="Capa 1"><g class="cls-2"><path class="cls-3" d="M81.48,47.18a2.66,2.66,0,0,1,.74.07.94.94,0,0,1,.72.63,9.1,9.1,0,0,1,.58,2.42,17.76,17.76,0,0,1-.14,3.86c-.1,1-.15,1.92-.2,2.88a20.32,20.32,0,0,1-.36,2.55c-.09.6-.26,1.22-.31,1.85a1.07,1.07,0,0,1-.91.84c-.17,0-.26-.12-.34-.24s-.24-.39-.52-.36-.22-.15-.29-.24a1.52,1.52,0,0,1-.22-.34,4.13,4.13,0,0,0-.24-.53c.31.12.46.65.91.67a10,10,0,0,1-.64-1,2.32,2.32,0,0,1-.36-1.36c-.08-.89-.15-1.8-.2-2.72s-.09-1.82,0-2.73,0-1.59.07-2.38a3.43,3.43,0,0,0-.09-.84,4,4,0,0,1,.26-1.68,2.74,2.74,0,0,1,.72-1.1,1.15,1.15,0,0,1,.84-.29m-.41-1.42-.24.1c-.09,0-.19.12-.26.1-.31-.1-.53.12-.77.28a7.81,7.81,0,0,0-.86.51,4.27,4.27,0,0,0-1.2,1.65A11.4,11.4,0,0,0,76.92,52l-.12,2.47a8.84,8.84,0,0,0,0,1c.07,1.15.14,2.33.24,3.48A2.85,2.85,0,0,0,78,61.12c.17.15.1.24-.07.41.48,0,.6.39.79.67a2.23,2.23,0,0,0,.34.44,1.14,1.14,0,0,0,1.1.43,3.14,3.14,0,0,1,.53,0,.52.52,0,0,0,.5-.21c.1.14.2.24.17.36s.07.33.22.43a.38.38,0,0,0,.53,0,.56.56,0,0,1,.45-.15,1.67,1.67,0,0,0,1.15-.5,2.49,2.49,0,0,0,.51-.36,3.83,3.83,0,0,0,.84-1.8c.17-.79.5-1.51.72-2.28a7.81,7.81,0,0,0,.36-1.78c.07-.91.07-1.82.09-2.71s0-1.68,0-2.52a5.85,5.85,0,0,0-.84-2.71,3.56,3.56,0,0,1-.41-.7A3.08,3.08,0,0,0,83,46.34a3.27,3.27,0,0,0-1.68-.07c0-.19.33-.19.21-.39s-.29-.16-.48-.12M66.91,51.21c.31,0-.12,2.31,0,2.67s-.36,0-.26-.2a4.07,4.07,0,0,1,.05-.91c0-.05.24-1.56.26-1.56M71,46a3,3,0,0,1-1.49.1c-.12-.05-.17,0-.24.1a3,3,0,0,0-.84.86c-.09.19-.21.22-.38,0s-.07,0-.1,0a.23.23,0,0,0-.09.07,11.77,11.77,0,0,0-1.76,4.23c-.12.55,0,1.08-.14,1.63a26,26,0,0,0-.19,3.31,3,3,0,0,1-.07.79.74.74,0,0,0,0,.65c.12.26,0,.55.12.79a4.32,4.32,0,0,1,.17,1.59,6.46,6.46,0,0,0,.67,2.16,3.26,3.26,0,0,0,1,1.27c.43.17.74.24,1.2.41a.19.19,0,0,0,.12-.08c.09-.09.21,0,.33,0s.17.1.24.08c.39-.17.55,0,1-.1A7.12,7.12,0,0,0,72,63.31a10.26,10.26,0,0,1,1.25-.77,3.65,3.65,0,0,0,1.15-1c.1-.12.17-.24.24-.31s.34-.27.48-.41a3.52,3.52,0,0,0,.36-.63c.12-.19.41-.26.58-.5a1,1,0,0,0,0-.12c-.19-.14.22-.5.1-.7a1.37,1.37,0,0,0-.6.34c-.29.31-.58.5-.87.79a3.05,3.05,0,0,1-.65.46,6.48,6.48,0,0,1-1.39,1,.8.8,0,0,1-.43.19l-1,.07A1.1,1.1,0,0,1,70.1,61a4.86,4.86,0,0,1-.55-2c0-.27-.33-.53-.31-.82a4,4,0,0,0,0-1.15,1.24,1.24,0,0,1,0-.43c0-.65-.07-2.24,0-3.2,0-.45.15-.88.24-1.32.12-.74.43-1.44.53-2.18a9.67,9.67,0,0,1,.5-1.58,1.86,1.86,0,0,1,.72-1.06s0-.07,0-.12a2.29,2.29,0,0,1-.36,0,1.42,1.42,0,0,1,2,1A17.26,17.26,0,0,0,73.2,50a3.63,3.63,0,0,0,.74,2.18c.1-.12.08-.29.2-.41s0-.86.28-.43c.6.79.51-2.47.46-3.46a1.58,1.58,0,0,0-.74-1.32A4.41,4.41,0,0,0,71,46M62.18,62.08c.29,0,.32.2.41.39-.43.05-.43.05-.41-.39m-4-15.64a5.16,5.16,0,0,0-1.68.26.53.53,0,0,1-.39.07,1.5,1.5,0,0,0-1,0c-.26.07-.26.16-.26.36s0,.67,0,1c0,1.56,0,3.1,0,4.66,0,1.36.14,2.76,0,4.12a.81.81,0,0,0,0,.27,4.77,4.77,0,0,1,.09,1c.05,1.15.05,2.28.15,3.41a.94.94,0,0,0,.12.53,1.39,1.39,0,0,1,.17.6c0,.14,0,.31.16.33.34.08.53.34.87.48a12.5,12.5,0,0,0,0-1.39c0-.79-.19-1.58-.21-2.37,0-1.44-.17-2.86-.17-4.28,0-2,.05-4,.1-5.95,0-.05,0-.14.12-.19.12.6.28,1.2.38,1.8a25.16,25.16,0,0,0,.79,3,38.13,38.13,0,0,1,1.08,3.75c.22.93.55,1.8.77,2.73.14.6.34,1.18.5,1.78.08.26.2.45.51.48s.48.29.77.14c.4.24.86.1,1.32.17.19,0,.36,0,.5.19s.14.17.26.1a.7.7,0,0,0,.44-.7c0-.12,0-.21,0-.33s-.19-.44.12-.65c.15-.1.07-.41.07-.65,0-.84-.24-1.66-.28-2.5-.05-.67-.22-1.34-.22-2,0-1.08-.05-2.13,0-3.19,0-.6,0-1.18,0-1.75,0-.77,0-1.51,0-2.26a19.62,19.62,0,0,0-.17-2.18c0-.22-.48-.6-.69-.63s-.2,0-.24.08a.84.84,0,0,0-.24.5c0,1.15,0,2.28,0,3.43a9.91,9.91,0,0,0,.05,1.44c0,.46.07.91.07,1.39s-.07.77-.07,1.13c0,.63.07,1.25.07,1.85,0,.1,0,.22.15.26a4.52,4.52,0,0,0,0-.52c0-.17-.07-.34.05-.51a12,12,0,0,1,.12,3.58c-.07,0-.1-.07-.12-.12-.27-.94-.55-1.87-.82-2.81-.17-.55-.29-1.13-.48-1.68-.53-1.44-.91-2.95-1.44-4.39-.36-.94-.41-1.92-.72-2.86-.12-.33-.41-.53-.48-.86,0,0-.09-.07-.14-.07m-7.8,6.36a2.42,2.42,0,0,1,.29,1.1c0-.14-.48-.91-.29-1.1m-3.34-3a8.32,8.32,0,0,1,.48,2.11,8,8,0,0,0,.41,1.87c.17.51.19,1,.34,1.52s.24,1.17.45,1.72c.12.34.1.39-.26.46a1.41,1.41,0,0,1-.43.1c-.77,0-1.64.07-2.43.12.15-.82.29-1.64.39-2.45a9.34,9.34,0,0,1,.38-1.85c.22-.6.14-1.25.31-1.85a4.41,4.41,0,0,0,.22-1.49c0-.07,0-.16.14-.26M47.28,46c-.29-.17-.53.12-.77.21s-.21.34-.17.51a1,1,0,0,1,0,.53c-.1.69-.22,1.41-.34,2.13a15.41,15.41,0,0,1-.41,2.11A26.94,26.94,0,0,0,45,54.84c-.1.81-.41,1.84-.53,2.66-.07.55,0,.43-.55.58-.17,0-.38,0-.48.19.1.19.29.21.46.26s.31.07.26.41l-.07.36a19.32,19.32,0,0,0-.58,3.14c0,.24.17.84.22.63.09-.39.26.14.36.17.36.09.48,0,.53-.27s.07-.41.09-.6l.19-1.65c.05-.46.2-.87.29-1.32.07-.22.05-.48.19-.63s.56-.07.77-.09c1-.12,1.68,0,2.62-.1a.38.38,0,0,1,.43.31c.12.67.46,1.27.62,1.92s.46,1.54.72,2.33a.24.24,0,0,0,.36.19c.29-.07.75.19.84-.24,0-.21.39-.14.48.12s.2.07.24.17.29.26.41.38a.21.21,0,0,0,.22-.26c.41,0,.43-.36.45-.65a3.53,3.53,0,0,0-.36-1.7,21.5,21.5,0,0,1-.88-2.64c0-.24,0-.48,0-.7a13.92,13.92,0,0,0-.6-2.45,28.35,28.35,0,0,1-1.08-3.14,8,8,0,0,0-.48-1.94c-.19-.36-.24-.24-.29-.65s-.29-1-.41-1.56a11.58,11.58,0,0,0-.5-1.32c-.34-.91-.43-.48-.43.12-.05-.22-.27-.87-.41-.82a1.2,1.2,0,0,1-.77,0M36,62.3c.1,0,.07.07.1.12s-.05.14-.15.12-.07,0-.05-.07,0-.17.1-.17m.74-16.58c-.28,0-.52.07-.64.38-.05.07-.1.14-.17.14-.36,0-.63.34-1,.29-.17,0-.31.07-.29.31.1,1,0,2,0,3,0,1.27.1,2.52.12,3.79s0,2.4.1,3.6c.09,1.42,0,2.86.09,4.3a1.57,1.57,0,0,0,.36.77c.07.09.19.14.22.26-.12.41-.55.19-.79.39a.85.85,0,0,0,1,.62c.62-.12,1.44-.1,2.06-.17a16.24,16.24,0,0,1,2-.09c.6,0,1.17-.15,1.75-.1a1.88,1.88,0,0,0,1-.31.12.12,0,0,0,0-.19c-.1-.15,0-.22.07-.34s.05-.22-.07-.29a.65.65,0,0,0-.36-.05.79.79,0,0,1-.41,0,1.2,1.2,0,0,0-.72-.12c-.48,0-.94.07-1.39.14a4.8,4.8,0,0,1-1,0A.26.26,0,0,1,38.5,62c-.2-.2-.2-.17-.32,0a.1.1,0,0,1-.14.08.81.81,0,0,1,0-.77,1.76,1.76,0,0,0,.2-.77,3.88,3.88,0,0,1,0-.48A12.18,12.18,0,0,0,38.47,58a18.15,18.15,0,0,0-.41-2.45,18.2,18.2,0,0,1-.16-3.22c0-1.1,0-2.18,0-3.29,0-.62,0-1.24,0-1.87a.82.82,0,0,0-.24-.84c-.15,1,0,1.92-.12,2.81s.24,1.85-.07,2.76c-.17-.12-.15-.29-.17-.46a4.79,4.79,0,0,1,0-1.2,25.16,25.16,0,0,1,0-2.88,5.8,5.8,0,0,0,.05-.93c0-.07,0-.22-.07-.24-.26,0-.31-.29-.46-.43m-9.21,8.59a3.18,3.18,0,0,0,1.15.17.4.4,0,0,1,.53.19,10.55,10.55,0,0,1-1.87-.05c.21.17.21.17.43.19a6,6,0,0,1,1.73.12,1,1,0,0,1,.55.29c.36.34.36.41.19.77s-.34.91-.5,1.37c-.36.84-.89,1.53-1.32,2.32a2.79,2.79,0,0,0-.2.39.43.43,0,0,1-.33.33,9,9,0,0,0-1.32.94,12.46,12.46,0,0,1-.12-1.61c-.05-.53-.12-1.08-.12-1.61s-.1-1.1-.07-1.65a8.9,8.9,0,0,1,0-1.63c.15-.08.34,0,.43-.15s-.26-.09-.4-.21a2.13,2.13,0,0,1,1.27-.17m-.94-6.75a2.08,2.08,0,0,1,1.44,0,3.3,3.3,0,0,0,1.32.33c.39,0,.51.27.29.6a10.12,10.12,0,0,1-2.14,2.69s-.14.07-.16.12a1.87,1.87,0,0,1-1.13.77,1.37,1.37,0,0,1,0-.7c.1-1.15.07-2.35.1-3.5,0-.24.07-.29.26-.34M27,46.1,23,46.6c-.22,0-.43.1-.65.12a.31.31,0,0,0-.24.36c0,.17.07.32.1.44s.19.28.38.21a1.73,1.73,0,0,1,.67-.07c.29.05.32.07.34.38,0,.6,0,1.23-.05,1.85a2.11,2.11,0,0,1-.07.79,3.38,3.38,0,0,0-.07,1l.07,2.73c0,1,0,2,0,3.08A9.06,9.06,0,0,1,23.38,60c0,.1,0,.22,0,.31l.36,2.4.1.67c.5,0,.57-.52.89-.69l.09.12c.1.26.22.5.55.5.12,0,.15.12.17.24a4,4,0,0,0,.12.43c.43-.28.77-.55,1.18-.79A23,23,0,0,0,29,61.53c.22-.14.43-.26.65-.43a9.32,9.32,0,0,0,1.51-1.56,11.62,11.62,0,0,0,1.59-2.09,5.19,5.19,0,0,0,.52-1.32,1.06,1.06,0,0,0-.24-1,6.4,6.4,0,0,0-2.08-1.32,6.32,6.32,0,0,0-1.73-.34c-.75-.07-1.47-.12-2.19-.16.17-.12.15-.36.29-.44.31-.14.48-.5.89-.48a.16.16,0,0,0,.19-.16c0-.2.19-.22.31-.29s.51-.31.75-.48A8.77,8.77,0,0,0,31,50a2.48,2.48,0,0,0,.5-1.36,1.61,1.61,0,0,0-1.12-1.92l-.7-.24A5.62,5.62,0,0,0,27,46.1" transform="translate(0 0)"/><path class="cls-3" d="M102.22,18.87a3.67,3.67,0,0,1,1.09.1,1.4,1.4,0,0,1,1,.91,13.84,13.84,0,0,1,.84,3.54,25.22,25.22,0,0,1-.21,5.63c-.14,1.4-.21,2.8-.28,4.2a33.81,33.81,0,0,1-.53,3.71c-.14.87-.38,1.78-.45,2.69a1.57,1.57,0,0,1-1.33,1.23c-.25,0-.39-.18-.49-.35s-.35-.56-.77-.53c-.21,0-.32-.21-.42-.35a2.44,2.44,0,0,1-.32-.49,7.39,7.39,0,0,0-.35-.77c.46.18.67,1,1.33,1-.35-.42-.7-1-.94-1.4a3.57,3.57,0,0,1-.53-2c-.1-1.3-.21-2.63-.28-4a37.93,37.93,0,0,1,0-4c.07-1.15,0-2.31.1-3.46a4.57,4.57,0,0,0-.14-1.22A5.82,5.82,0,0,1,100,20.9a4,4,0,0,1,1-1.62,1.69,1.69,0,0,1,1.22-.41m-.59-2.07a2,2,0,0,0-.35.14c-.14.07-.28.18-.39.14-.45-.14-.77.18-1.12.42a10.19,10.19,0,0,0-1.26.74,6.35,6.35,0,0,0-1.75,2.41,16.36,16.36,0,0,0-1.19,5.18l-.17,3.61a9.39,9.39,0,0,0,0,1.5c.1,1.68.21,3.39.35,5.07a4.13,4.13,0,0,0,1.33,3.19c.24.21.14.35-.11.59.7,0,.88.56,1.16,1a2.64,2.64,0,0,0,.49.63,1.63,1.63,0,0,0,1.61.63,6.52,6.52,0,0,1,.77,0,.76.76,0,0,0,.73-.32c.14.21.28.35.25.53-.11.35.1.49.31.63s.49.24.77,0a.88.88,0,0,1,.67-.21,2.49,2.49,0,0,0,1.68-.73,3.67,3.67,0,0,0,.73-.53,5.51,5.51,0,0,0,1.23-2.62c.24-1.16.73-2.21,1-3.33a10.92,10.92,0,0,0,.52-2.59c.11-1.32.11-2.66.14-3.95s0-2.45-.07-3.67a8.5,8.5,0,0,0-1.22-4,5.46,5.46,0,0,1-.6-1,4.5,4.5,0,0,0-2.73-2.55,4.91,4.91,0,0,0-2.45-.11c.07-.27.49-.27.32-.56s-.42-.24-.7-.17M80,37.8c.14.31.31.94.84.73-.25-.28-.32-.7-.84-.73M83,27a4.92,4.92,0,0,1,1.44.91c.07.24.45.38.8.87.25.28.63,1,.53,1.05A12.63,12.63,0,0,1,83,27m4.41-9.73a6.87,6.87,0,0,1-1.85.21,1.57,1.57,0,0,0-1.19.24,6.61,6.61,0,0,0-2.66,3.15,27.73,27.73,0,0,0-.81,3,2,2,0,0,0,0,.91,14,14,0,0,0,.56,1.61,6.87,6.87,0,0,0,2.24,3,26.61,26.61,0,0,1,4.09,4.9,1.24,1.24,0,0,1,.25.53,12.85,12.85,0,0,1,.42,2.59,3,3,0,0,1-.81,2.31c-1.08,1.12-2.31.07-3.53-.42a2.61,2.61,0,0,1-1.26-.84c-.25-.28-.32-.6-.7-.91s-.32-.28-.53-.42-.28.07-.56-.25-.56,0-.7.07c0,.21.21.28.28.42.18.32.53.53.53.95a1.86,1.86,0,0,0,.28,1c.7,1.08-1.16-.77-.42.24.07.11,2.13,2.07,2.27,2.17,1.51.91,3.26,1.37,4.31.77a1.27,1.27,0,0,1,1.12-.17c.14.07.28,0,.42-.11a3.65,3.65,0,0,0,1.36-1,.74.74,0,0,1,.39-.24,1.27,1.27,0,0,0,.87-.63,7.18,7.18,0,0,0,1-2.52c0-.18,0-.35.21-.46a.93.93,0,0,0,.42-.94,9.62,9.62,0,0,0-.17-2.28c-.32-1-.28-2.17-1.12-3a5.25,5.25,0,0,1-.67-.84,12.13,12.13,0,0,0-1.71-2,13.85,13.85,0,0,1-2.17-2.16,18.91,18.91,0,0,0-2.56-3,1.42,1.42,0,0,1-.07-1.72c.21-.31.35-.94.53-1.29a1.72,1.72,0,0,1,.77-.91c.35-.14.7-.31,1-.42.63-.25,1.54.56,1.71,1.23a2.9,2.9,0,0,1,.11,1.43,3,3,0,0,0,.7,2.48c0,.07.07.07.1,0,.21-.11.07-.42.32-.49.14.11.1.35.31.42a11.33,11.33,0,0,0,.56-1c.14-.24.49-.24.53-.48a3.14,3.14,0,0,0,.07-1.61l-.63-2a2.06,2.06,0,0,0-1.58-1.47,7,7,0,0,0-2.1,0M75.94,40.6c.42,0,.45.28.59.56-.63.07-.63.07-.59-.56M70,17.78a7.25,7.25,0,0,0-2.45.39.77.77,0,0,1-.56.1,2.19,2.19,0,0,0-1.43,0c-.39.1-.39.24-.39.52,0,.49.07,1,.07,1.43,0,2.28,0,4.52,0,6.8,0,2,.21,4,.07,6a1.27,1.27,0,0,0,0,.39,7.21,7.21,0,0,1,.14,1.43c.07,1.68.07,3.33.21,5a1.39,1.39,0,0,0,.17.77,1.94,1.94,0,0,1,.25.88.42.42,0,0,0,.24.49c.49.1.77.49,1.26.7a19.17,19.17,0,0,0,0-2c-.07-1.16-.28-2.31-.32-3.47C67.19,35.1,67,33,67,31c0-2.9.07-5.77.14-8.68,0-.07-.07-.21.17-.28.18.88.42,1.75.56,2.63A35.93,35.93,0,0,0,69,28.94c.56,1.82,1.19,3.61,1.57,5.46.32,1.37.81,2.63,1.12,4,.21.88.49,1.72.74,2.59.1.39.28.67.73.7s.7.42,1.12.21c.6.35,1.26.14,1.93.25.28,0,.52,0,.73.28a.27.27,0,0,0,.39.14,1,1,0,0,0,.63-1c0-.17,0-.31,0-.49s-.28-.63.18-.94c.21-.14.1-.6.1-1-.07-1.22-.35-2.41-.42-3.64-.07-1-.31-2-.31-2.9,0-1.58-.07-3.11,0-4.65.07-.88,0-1.72,0-2.56,0-1.12,0-2.2,0-3.29a30.09,30.09,0,0,0-.25-3.18c0-.32-.7-.88-1-.91-.11,0-.28,0-.35.1a1.32,1.32,0,0,0-.35.74c.07,1.68,0,3.32,0,5a14.74,14.74,0,0,0,.07,2.1c0,.66.11,1.33.11,2s-.11,1.12-.11,1.65c.07.91.11,1.82.11,2.69,0,.14,0,.31.21.38a4.91,4.91,0,0,0,0-.77c0-.24-.1-.48.07-.73a17.57,17.57,0,0,1,.18,5.21c-.11,0-.14-.1-.18-.17-.38-1.37-.8-2.73-1.19-4.1-.24-.8-.42-1.64-.7-2.44-.77-2.11-1.33-4.31-2.1-6.41-.52-1.37-.59-2.8-1-4.16-.17-.5-.59-.77-.7-1.27,0-.07-.14-.1-.21-.1M52,39.93c.21.25.14.84.18,1.09s.07.38-.49.45c.07-.42-.07-1.19.31-1.54m2.24-22.5c-.63-.21-1.22-.56-1.85,0,0,0-.07,0-.11,0-.45-.07-.49.21-.49.56a3,3,0,0,1-.07.56,10.12,10.12,0,0,0-1.68.39.56.56,0,0,0,.49.34c.46.07.39.32.84.32.28,0,.42.14.42.45,0,1.23.11,2.49.07,3.75-.07,2.52-.14,5.07-.31,7.6s-.07,5-.28,7.62c0,.84,0,1.65,0,2.45a9.26,9.26,0,0,1-1.75.56c-.18,0-.28.11-.28.32a.33.33,0,0,0,.21.35c.21.07.38.24.59.24a22.43,22.43,0,0,0,4.1-.28c.28,0,.52-.14.8.07s.46.18.49-.1.32-.42.6-.49A16,16,0,0,1,59.24,42a6.65,6.65,0,0,0,1.16-.18A5,5,0,0,1,62,41.47c.32,0,.39-.21.21-.45s-.28-.28-.21-.49c.25-.18.63,0,.84-.32a7.92,7.92,0,0,1-.63-.56.66.66,0,0,0-.49-.14c-.63.14-1.29,0-1.92.21-1.23.35-2.45.53-3.68.84a.8.8,0,0,1-.7,0c.42-.53,1.12-.14,1.51-.49,0-.18-.11-.21-.18-.25a2.78,2.78,0,0,0-.77,0c-.31,0-.45-.07-.52-.42a7,7,0,0,1,.17-2.59,3.32,3.32,0,0,0,.11-1,25.83,25.83,0,0,1,.1-2.8c0-.88,0-1.71,0-2.55,0-.46,0-.46.42-.5a8.72,8.72,0,0,0,2.52-.34,3.8,3.8,0,0,1,1-.25,1.42,1.42,0,0,0,.77-.42c-.46-.31-.77-.81-1.33-.7-1.12.18-2.24-.14-3.4,0a32.9,32.9,0,0,1,0-4.55,9.72,9.72,0,0,0,0-1.08,7.82,7.82,0,0,1-.1-3c.07-.21.17-.35.38-.35.74,0,1.47-.24,2.21-.28s1.57,0,2.38,0a9.62,9.62,0,0,0,2.41-.39,2.1,2.1,0,0,0-1.82-1.23c-.38,0-.77.11-1.15.14-1.47.25-3,.21-4.45.46-.07,0-.21,0-.24,0a2,2,0,0,0-1.16-.7M46.05,28.24l.17,1.48a8.57,8.57,0,0,1,.14.94,3.34,3.34,0,0,1,0,1c-.11.38-.11.28-.14.42l-.07-.77c0-.18-.25-.63-.25-.77v-.8a7.34,7.34,0,0,1,.18-1.48M43.77,17.88c-.07,0-.21,0-.28.11s-.38.07-.49.25.11.45,0,.7a.75.75,0,0,0-.24,0c-.56,0-.56,0-.6.52,0,1.44-.14,3.26-.07,4.7,0,1.19-.07,2.44,0,3.67.14,2.34,0,4.69.21,7.07.07,1,.28,1.92.28,2.94s0,1.85,0,2.8a3.63,3.63,0,0,0,.24,1.22.44.44,0,0,0,.46.35c.87-.1,1.15,1,1.92-.21.14-.21.46-.17.74,0s.42.28.7-.17c.1-.21.21-.39,0-.6s-.14-.21,0-.28c.28-.17.14-.38.1-.59a.94.94,0,0,1,0-.7A4.4,4.4,0,0,0,47,37.83c.07-1.36,0-2.76.24-4.16a7.66,7.66,0,0,0,0-3A7.55,7.55,0,0,1,47,29.4c-.14-1.19-.14-2.38-.24-3.57-.14-1.64-.14-3.54-.21-5.07a3.78,3.78,0,0,0-.95-2.32c-.49-.52-1.19-.45-1.82-.56M26.41,24.74c.46,0-.17,3.36-.07,3.89s-.52,0-.38-.28A5.48,5.48,0,0,1,26,27c0-.07.35-2.28.38-2.28m6-7.59a4.55,4.55,0,0,1-2.17.14c-.17-.07-.24.07-.35.14a4.19,4.19,0,0,0-1.22,1.26c-.14.28-.32.32-.56.07,0,0-.11,0-.14-.07a.33.33,0,0,0-.14.11A17,17,0,0,0,25.29,25c-.17.8-.07,1.57-.21,2.37a37.05,37.05,0,0,0-.28,4.83,4.55,4.55,0,0,1-.1,1.16,1.07,1.07,0,0,0,.07.94c.17.39,0,.81.17,1.16a6.52,6.52,0,0,1,.25,2.31,9.1,9.1,0,0,0,1,3.15,4.66,4.66,0,0,0,1.5,1.85c.63.25,1.09.35,1.75.6a.26.26,0,0,0,.18-.11c.14-.14.31-.07.49,0s.24.14.35.11c.56-.25.8.07,1.43-.14a9.4,9.4,0,0,0,2-.81,15.11,15.11,0,0,1,1.82-1.12,5.35,5.35,0,0,0,1.68-1.5c.14-.18.25-.35.35-.46s.49-.38.7-.59a5.22,5.22,0,0,0,.53-.91c.17-.28.59-.39.84-.74a1.39,1.39,0,0,0,0-.17c-.28-.21.32-.74.14-1a2.1,2.1,0,0,0-.87.49c-.42.46-.84.74-1.26,1.16a4.6,4.6,0,0,1-.95.66,8.73,8.73,0,0,1-2,1.4,1.13,1.13,0,0,1-.63.28L32.75,40a1.58,1.58,0,0,1-1.68-.91,7.09,7.09,0,0,1-.81-2.91c0-.38-.49-.77-.45-1.19a5.57,5.57,0,0,0,0-1.68,2.26,2.26,0,0,1,.07-.63c.07-.94-.1-3.25.07-4.65a16.32,16.32,0,0,1,.35-1.92c.18-1.09.63-2.11.77-3.19a13.5,13.5,0,0,1,.74-2.31A2.67,2.67,0,0,1,32.82,19c.07,0,.07-.1,0-.17s-.28,0-.53-.07a2.06,2.06,0,0,1,2.94,1.5A25.48,25.48,0,0,0,35.58,23c.21,1.09.18,2.31,1.09,3.19.14-.18.1-.43.28-.6s-.07-1.26.42-.63c.87,1.16.73-3.61.66-5A2.27,2.27,0,0,0,37,18a6.33,6.33,0,0,0-4.52-.88M19.52,40.6c.42,0,.45.28.59.56-.63.07-.63.07-.59-.56M13.6,17.78a7.25,7.25,0,0,0-2.45.39.77.77,0,0,1-.56.1,2.19,2.19,0,0,0-1.43,0c-.39.1-.39.24-.39.52,0,.49.07,1,.07,1.43,0,2.28,0,4.52,0,6.8,0,2,.21,4,.07,6a1.27,1.27,0,0,0,0,.39A7.21,7.21,0,0,1,9,34.89c.07,1.68.07,3.33.21,5a1.39,1.39,0,0,0,.17.77,1.94,1.94,0,0,1,.25.88.42.42,0,0,0,.24.49c.49.1.77.49,1.26.7a19.17,19.17,0,0,0,0-2c-.07-1.16-.28-2.31-.32-3.47,0-2.1-.24-4.16-.24-6.23,0-2.9.07-5.77.14-8.68,0-.07-.07-.21.17-.28.18.88.42,1.75.56,2.63a35.93,35.93,0,0,0,1.16,4.3c.56,1.82,1.19,3.61,1.57,5.46.32,1.37.81,2.63,1.12,4,.21.88.49,1.72.74,2.59.1.39.28.67.73.7s.7.42,1.12.21c.6.35,1.26.14,1.93.25.28,0,.52,0,.73.28a.27.27,0,0,0,.39.14,1,1,0,0,0,.63-1c0-.17,0-.31,0-.49s-.28-.63.18-.94c.21-.14.1-.6.1-1-.07-1.22-.35-2.41-.42-3.64-.07-1-.31-2-.31-2.9,0-1.58-.07-3.11,0-4.65.07-.88,0-1.72,0-2.56,0-1.12,0-2.2,0-3.29a30.09,30.09,0,0,0-.25-3.18c0-.32-.7-.88-1-.91-.11,0-.28,0-.35.1a1.32,1.32,0,0,0-.35.74c.07,1.68,0,3.32,0,5a14.74,14.74,0,0,0,.07,2.1c0,.66.11,1.33.11,2s-.11,1.12-.11,1.65c.07.91.11,1.82.11,2.69,0,.14,0,.31.21.38a4.91,4.91,0,0,0,0-.77c0-.24-.1-.48.07-.73a17.57,17.57,0,0,1,.18,5.21c-.11,0-.14-.1-.18-.17-.38-1.37-.8-2.73-1.19-4.1-.24-.8-.42-1.64-.7-2.44-.77-2.11-1.33-4.31-2.1-6.41-.52-1.37-.59-2.8-1.05-4.16-.17-.5-.59-.77-.7-1.27,0-.07-.14-.1-.21-.1M4,28.24l.17,1.48a8.57,8.57,0,0,1,.14.94,3.34,3.34,0,0,1,0,1c-.11.38-.11.28-.14.42l-.07-.77c0-.18-.25-.63-.25-.77v-.8A7.34,7.34,0,0,1,4,28.24M1.7,17.88c-.07,0-.21,0-.28.11s-.38.07-.49.25.11.45,0,.7a.75.75,0,0,0-.24,0c-.56,0-.56,0-.6.52,0,1.44-.14,3.26-.07,4.7,0,1.19-.07,2.44,0,3.67.14,2.34,0,4.69.21,7.07.07,1,.28,1.92.28,2.94s0,1.85,0,2.8a3.63,3.63,0,0,0,.24,1.22.44.44,0,0,0,.46.35c.87-.1,1.15,1,1.92-.21.14-.21.46-.17.74,0s.42.28.7-.17c.1-.21.21-.39,0-.6s-.14-.21,0-.28c.28-.17.14-.38.1-.59a.94.94,0,0,1,0-.7,4.4,4.4,0,0,0,.28-1.86c.07-1.36,0-2.76.24-4.16a7.66,7.66,0,0,0,0-3,7.55,7.55,0,0,1-.21-1.29c-.14-1.19-.14-2.38-.24-3.57-.14-1.64-.14-3.54-.21-5.07a3.78,3.78,0,0,0-.95-2.32C3,17.92,2.33,18,1.7,17.88" transform="translate(0 0)"/><path class="cls-3" d="M78,4.9a1.93,1.93,0,0,0,.27.58,1.54,1.54,0,0,0,.46.42,1.34,1.34,0,0,0,.68.16,1.36,1.36,0,0,0,1-.31,1.65,1.65,0,0,0,.47-.84h.55a2.18,2.18,0,0,1-.64,1.19,1.93,1.93,0,0,1-1.33.42,2.06,2.06,0,0,1-.93-.19,1.61,1.61,0,0,1-.63-.52,2.15,2.15,0,0,1-.37-.76,3.41,3.41,0,0,1-.11-.92,3.15,3.15,0,0,1,.11-.87,2.2,2.2,0,0,1,.37-.77,1.77,1.77,0,0,1,.63-.55,2.06,2.06,0,0,1,.93-.2,1.83,1.83,0,0,1,.93.22,1.73,1.73,0,0,1,.63.57,2.41,2.41,0,0,1,.34.82,3.67,3.67,0,0,1,.09.93H77.87A2.7,2.7,0,0,0,78,4.9m2.74-1.69a1.61,1.61,0,0,0-.29-.51A1.39,1.39,0,0,0,80,2.34a1.38,1.38,0,0,0-1.21,0,1.39,1.39,0,0,0-.44.36,1.77,1.77,0,0,0-.3.52,2.39,2.39,0,0,0-.14.6H80.8a2.06,2.06,0,0,0-.11-.61M73,4.83a1.81,1.81,0,0,0,.26.62,1.48,1.48,0,0,0,.46.44,1.25,1.25,0,0,0,.68.17,1.42,1.42,0,0,0,.74-.17,1.39,1.39,0,0,0,.49-.44,1.65,1.65,0,0,0,.27-.62,2.73,2.73,0,0,0,0-1.39,1.58,1.58,0,0,0-.27-.62,1.52,1.52,0,0,0-.49-.45,1.53,1.53,0,0,0-.74-.17,1.34,1.34,0,0,0-.68.17,1.64,1.64,0,0,0-.46.45,1.73,1.73,0,0,0-.26.62,2.71,2.71,0,0,0-.08.69,2.74,2.74,0,0,0,.08.7M76,6.4V5.54h0a1.1,1.1,0,0,1-.26.4,1.48,1.48,0,0,1-.39.31,1.8,1.8,0,0,1-.47.2,1.66,1.66,0,0,1-.49.07,1.93,1.93,0,0,1-.9-.19,1.79,1.79,0,0,1-.64-.52,2.15,2.15,0,0,1-.37-.76,3.05,3.05,0,0,1-.13-.92,3,3,0,0,1,.13-.91,2.2,2.2,0,0,1,.37-.77,1.91,1.91,0,0,1,.64-.52,1.93,1.93,0,0,1,.9-.19,2,2,0,0,1,.49.06A1.44,1.44,0,0,1,75.3,2a1.56,1.56,0,0,1,.37.31,1.31,1.31,0,0,1,.25.43h0V.13h.55V6.4ZM68,1.93a2,2,0,0,1,.67.52,2.14,2.14,0,0,1,.41.76,3.13,3.13,0,0,1,0,1.85,2.23,2.23,0,0,1-.41.76,2,2,0,0,1-.67.51,2.07,2.07,0,0,1-.92.19,2.1,2.1,0,0,1-.92-.19,2,2,0,0,1-.67-.51,2.23,2.23,0,0,1-.41-.76,3.13,3.13,0,0,1,0-1.85,2.14,2.14,0,0,1,.41-.76,2,2,0,0,1,.67-.52,2.1,2.1,0,0,1,.92-.19,2.07,2.07,0,0,1,.92.19m-1.61.44a1.52,1.52,0,0,0-.5.44,2.1,2.1,0,0,0-.3.62,2.75,2.75,0,0,0-.1.7,2.83,2.83,0,0,0,.1.71,2.1,2.1,0,0,0,.3.62,1.52,1.52,0,0,0,.5.44,1.57,1.57,0,0,0,1.38,0,1.52,1.52,0,0,0,.5-.44,2.1,2.1,0,0,0,.3-.62,2.44,2.44,0,0,0,.1-.71,2.37,2.37,0,0,0-.1-.7,2.1,2.1,0,0,0-.3-.62,1.52,1.52,0,0,0-.5-.44,1.49,1.49,0,0,0-1.38,0m-2.28,4h-.56V1.87h.56Zm0-5.38h-.56V.13h.56Zm-2.82.85V2.93h0A1.65,1.65,0,0,1,63,1.81v.55a1.73,1.73,0,0,0-.69.1,1.55,1.55,0,0,0-.53.34,1.51,1.51,0,0,0-.34.52,1.59,1.59,0,0,0-.13.66V6.4H60.8V1.87Zm-4.66,3a1.93,1.93,0,0,0,.27.58,1.47,1.47,0,0,0,.47.42,1.28,1.28,0,0,0,.67.16A1.34,1.34,0,0,0,59,5.75a1.59,1.59,0,0,0,.47-.84H60a2.26,2.26,0,0,1-.65,1.19,1.93,1.93,0,0,1-1.33.42,2,2,0,0,1-.92-.19,1.64,1.64,0,0,1-.64-.52,2.14,2.14,0,0,1-.36-.76A3.41,3.41,0,0,1,56,4.13a3.15,3.15,0,0,1,.12-.87,2.19,2.19,0,0,1,.36-.77,1.8,1.8,0,0,1,.64-.55,2,2,0,0,1,.92-.2A1.83,1.83,0,0,1,59,2a1.73,1.73,0,0,1,.63.57,2.42,2.42,0,0,1,.35.82,3.26,3.26,0,0,1,.08.93H56.57a2.7,2.7,0,0,0,.08.62m2.74-1.69a1.8,1.8,0,0,0-.28-.51,1.55,1.55,0,0,0-.45-.36,1.33,1.33,0,0,0-.6-.14,1.27,1.27,0,0,0-.6.14A1.33,1.33,0,0,0,57,2.7a2,2,0,0,0-.3.52,2.39,2.39,0,0,0-.14.6H59.5a2.06,2.06,0,0,0-.11-.61m-10-1.34v.76h0A1.78,1.78,0,0,1,50.05,2a1.62,1.62,0,0,1,.9-.23,1.55,1.55,0,0,1,.82.22,1.06,1.06,0,0,1,.48.66,1.43,1.43,0,0,1,.6-.66,1.65,1.65,0,0,1,.84-.22q1.5,0,1.5,1.59V6.4h-.55V3.35a1.31,1.31,0,0,0-.24-.85,1,1,0,0,0-.83-.3,1.21,1.21,0,0,0-.6.14,1.09,1.09,0,0,0-.38.36,1.75,1.75,0,0,0-.19.53,2.91,2.91,0,0,0-.06.6V6.4h-.55V3.33a2,2,0,0,0,0-.44,1,1,0,0,0-.16-.36.76.76,0,0,0-.29-.24,1.06,1.06,0,0,0-.45-.09,1.44,1.44,0,0,0-.61.13,1.1,1.1,0,0,0-.42.35,1.51,1.51,0,0,0-.24.53,2.3,2.3,0,0,0-.08.66V6.4h-.55V1.87ZM47.38,6.4V5.58h0a1.48,1.48,0,0,1-.63.7,1.84,1.84,0,0,1-.93.24,2,2,0,0,1-.73-.12,1.17,1.17,0,0,1-.49-.34,1.28,1.28,0,0,1-.28-.53,2.63,2.63,0,0,1-.09-.72V1.87h.56v3a1.45,1.45,0,0,0,.28.93,1.45,1.45,0,0,0,1.54.16A1.27,1.27,0,0,0,47,5.5a1.79,1.79,0,0,0,.25-.58,3,3,0,0,0,.08-.67V1.87h.55V6.4ZM40.05.13V2.65h0A1.33,1.33,0,0,1,40.63,2a1.64,1.64,0,0,1,.89-.25,2.23,2.23,0,0,1,.79.12,1.2,1.2,0,0,1,.79.9,3.11,3.11,0,0,1,.08.72V6.4h-.55V3.57A2.35,2.35,0,0,0,42.57,3a1,1,0,0,0-.18-.43A.86.86,0,0,0,42,2.31a1.28,1.28,0,0,0-.55-.11,1.43,1.43,0,0,0-.6.12,1.31,1.31,0,0,0-.44.33,1.46,1.46,0,0,0-.28.49,2.36,2.36,0,0,0-.11.62V6.4H39.5V.13ZM37.83,3.92a.28.28,0,0,1-.2.14l-.26.06c-.24,0-.48.08-.72.11a4.4,4.4,0,0,0-.69.15,1.28,1.28,0,0,0-.5.28.66.66,0,0,0-.2.51.75.75,0,0,0,.09.37.85.85,0,0,0,.22.28.92.92,0,0,0,.32.18,1.26,1.26,0,0,0,.38.06A2.1,2.1,0,0,0,36.88,6a1.62,1.62,0,0,0,.5-.28,1.34,1.34,0,0,0,.34-.45,1.32,1.32,0,0,0,.13-.6V3.92ZM35.07,2.57a1.26,1.26,0,0,1,.38-.47A1.37,1.37,0,0,1,36,1.83a2.63,2.63,0,0,1,.72-.09,3.92,3.92,0,0,1,.59.05,1.43,1.43,0,0,1,.54.22,1.12,1.12,0,0,1,.39.44,1.74,1.74,0,0,1,.14.74V5.6a.29.29,0,0,0,.33.33.47.47,0,0,0,.17,0v.46l-.17,0h-.19a.75.75,0,0,1-.33-.06.46.46,0,0,1-.2-.16.54.54,0,0,1-.09-.25,1.67,1.67,0,0,1,0-.32h0l-.3.39a1.54,1.54,0,0,1-.35.28,1.39,1.39,0,0,1-.43.18,2.37,2.37,0,0,1-.57.06,2.22,2.22,0,0,1-.59-.07,1.32,1.32,0,0,1-.49-.24,1.3,1.3,0,0,1-.32-.41,1.4,1.4,0,0,1-.12-.6,1.18,1.18,0,0,1,.21-.74,1.39,1.39,0,0,1,.56-.41,3,3,0,0,1,.78-.19l.88-.11.31,0a.4.4,0,0,0,.22-.09.35.35,0,0,0,.13-.18.62.62,0,0,0,.05-.3,1,1,0,0,0-.09-.46.76.76,0,0,0-.25-.28,1.16,1.16,0,0,0-.38-.15,3.42,3.42,0,0,0-.46,0,1.44,1.44,0,0,0-.86.25,1,1,0,0,0-.35.81H34.9a1.94,1.94,0,0,1,.17-.69M30,5.14a1.32,1.32,0,0,0,.44.52,1.83,1.83,0,0,0,.65.28,4.12,4.12,0,0,0,.81.08A2.09,2.09,0,0,0,32.39,6a1.86,1.86,0,0,0,.54-.22,1.46,1.46,0,0,0,.42-.4,1,1,0,0,0,.17-.58.85.85,0,0,0-.12-.46A1,1,0,0,0,33.09,4a1.67,1.67,0,0,0-.42-.22,4.29,4.29,0,0,0-.44-.13l-1.4-.35a3.27,3.27,0,0,1-.53-.17,1.71,1.71,0,0,1-.45-.28,1.35,1.35,0,0,1-.31-.43,1.48,1.48,0,0,1-.12-.63,1.89,1.89,0,0,1,.09-.53,1.27,1.27,0,0,1,.33-.58A1.85,1.85,0,0,1,30.5.19,2.58,2.58,0,0,1,31.58,0a3.17,3.17,0,0,1,.88.12,2.24,2.24,0,0,1,.74.37,2,2,0,0,1,.51.61,1.9,1.9,0,0,1,.18.85H33.3a1.4,1.4,0,0,0-.17-.63,1.36,1.36,0,0,0-.37-.45A1.71,1.71,0,0,0,32.22.6a2.18,2.18,0,0,0-.63-.09,2.91,2.91,0,0,0-.6.06,1.62,1.62,0,0,0-.5.22,1,1,0,0,0-.34.38,1.17,1.17,0,0,0-.13.59.92.92,0,0,0,.07.38.71.71,0,0,0,.21.27.91.91,0,0,0,.3.19l.36.11,1.53.38a5.81,5.81,0,0,1,.63.21,2.27,2.27,0,0,1,.52.32,1.6,1.6,0,0,1,.35.46,1.62,1.62,0,0,1,.12.66,1.58,1.58,0,0,1,0,.28,1.36,1.36,0,0,1-.1.37,2.12,2.12,0,0,1-.24.4,1.4,1.4,0,0,1-.42.37,2.93,2.93,0,0,1-.66.26,4.34,4.34,0,0,1-2,0A2.11,2.11,0,0,1,29.88,6a1.71,1.71,0,0,1-.51-.67,2.2,2.2,0,0,1-.15-1h.59a1.87,1.87,0,0,0,.15.8" transform="translate(0 0)"/></g></g></g></svg>