<svg xmlns="http://www.w3.org/2000/svg" xmlns:xlink="http://www.w3.org/1999/xlink" viewBox="0 0 108.22 67.17"><defs><style>.cls-1{fill:none;}.cls-2{clip-path:url(#clip-path);}.cls-3{fill:#1d1d1b;}</style><clipPath id="clip-path" transform="translate(0 0)"><rect class="cls-1" width="108.22" height="67.17"/></clipPath></defs><title>Recurso 2</title><g id="Capa_2" data-name="Capa 2"><g id="Capa_1-2" data-name="Capa 1"><g class="cls-2"><path class="cls-3" d="M91.75,49.64a2.88,2.88,0,0,1,.77.08,1,1,0,0,1,.75.65,9.55,9.55,0,0,1,.6,2.52,18.09,18.09,0,0,1-.15,4c-.1,1-.15,2-.2,3a24.11,24.11,0,0,1-.37,2.65c-.1.62-.28,1.27-.33,1.92a1.12,1.12,0,0,1-.95.88c-.17,0-.27-.13-.35-.25s-.25-.4-.55-.38-.22-.15-.3-.25a1.38,1.38,0,0,1-.22-.35c-.08-.17-.15-.37-.25-.55.32.13.47.68,1,.7-.25-.3-.5-.75-.68-1a2.6,2.6,0,0,1-.37-1.42C90,60.94,90,60,89.9,59a27.1,27.1,0,0,1,0-2.85c0-.82,0-1.65.08-2.47a3.77,3.77,0,0,0-.1-.88,4.15,4.15,0,0,1,.27-1.75,3.05,3.05,0,0,1,.75-1.15,1.24,1.24,0,0,1,.88-.3m-.43-1.47a1.45,1.45,0,0,0-.25.1c-.1,0-.2.12-.27.1-.33-.1-.55.12-.8.3a7.07,7.07,0,0,0-.9.52,4.48,4.48,0,0,0-1.25,1.73,11.67,11.67,0,0,0-.85,3.7l-.13,2.57a9.72,9.72,0,0,0,0,1.08c.08,1.2.15,2.42.25,3.62a3,3,0,0,0,.95,2.28c.18.15.1.25-.07.42.5,0,.62.4.82.7a2.06,2.06,0,0,0,.35.45,1.16,1.16,0,0,0,1.15.45,5.15,5.15,0,0,1,.55,0,.57.57,0,0,0,.53-.23c.1.15.2.25.17.38s.08.35.23.45a.39.39,0,0,0,.55,0,.62.62,0,0,1,.47-.15,1.75,1.75,0,0,0,1.2-.52,2.45,2.45,0,0,0,.53-.38,3.92,3.92,0,0,0,.87-1.87c.18-.83.53-1.58.75-2.38a7.8,7.8,0,0,0,.38-1.85c.07-1,.07-1.9.1-2.82s0-1.75-.05-2.63a6,6,0,0,0-.88-2.82,4.44,4.44,0,0,1-.42-.73,3.19,3.19,0,0,0-2-1.82,3.43,3.43,0,0,0-1.75-.08c.05-.2.35-.2.22-.4s-.3-.17-.5-.12m-7.85,17c.3,0,.33.2.43.4-.45.05-.45.05-.43-.4m-4.22-16.3a5.28,5.28,0,0,0-1.75.27.56.56,0,0,1-.4.08,1.65,1.65,0,0,0-1,0c-.27.08-.27.18-.27.38,0,.35,0,.7,0,1,0,1.63,0,3.23,0,4.85,0,1.43.15,2.88.05,4.3a1.31,1.31,0,0,0,0,.28,4.58,4.58,0,0,1,.1,1c0,1.2,0,2.38.15,3.55a1,1,0,0,0,.13.55,1.38,1.38,0,0,1,.17.63.31.31,0,0,0,.18.35c.35.07.55.35.9.5a13.56,13.56,0,0,0,0-1.45c0-.83-.2-1.65-.22-2.48,0-1.5-.18-3-.18-4.45,0-2.07.05-4.12.1-6.2,0-.05,0-.15.13-.2.12.63.3,1.25.4,1.88a27.24,27.24,0,0,0,.82,3.07c.4,1.3.85,2.58,1.13,3.9.22,1,.57,1.88.8,2.85.15.63.35,1.23.52,1.85.08.28.2.48.53.5s.5.3.8.15c.42.25.9.1,1.37.18.2,0,.38,0,.53.2a.18.18,0,0,0,.27.1.71.71,0,0,0,.45-.73c0-.12,0-.22,0-.35s-.2-.45.12-.67c.15-.1.08-.43.08-.68,0-.87-.25-1.72-.3-2.6,0-.7-.23-1.4-.23-2.07,0-1.13,0-2.23,0-3.33.05-.62,0-1.22,0-1.82,0-.8,0-1.58,0-2.35s-.15-1.53-.17-2.28a1.21,1.21,0,0,0-.73-.65c-.07,0-.2,0-.25.08a.94.94,0,0,0-.25.52c0,1.2,0,2.38,0,3.58a9.41,9.41,0,0,0,0,1.5c0,.47.07,1,.07,1.45s-.07.8-.07,1.17c0,.65.07,1.3.07,1.93,0,.1,0,.22.15.27a4.93,4.93,0,0,0,0-.55c0-.17-.08-.35,0-.52a12.26,12.26,0,0,1,.12,3.72c-.07,0-.1-.07-.12-.12-.28-1-.58-2-.85-2.93-.18-.57-.3-1.17-.5-1.75-.55-1.5-1-3.07-1.5-4.57-.38-1-.43-2-.75-3-.13-.35-.43-.55-.5-.9,0,0-.1-.07-.15-.07m-8.13,6.62a2.43,2.43,0,0,1,.3,1.15c0-.15-.5-1-.3-1.15m-3.47-3.1a9.53,9.53,0,0,1,.5,2.2,8.7,8.7,0,0,0,.42,1.95c.18.53.2,1.08.35,1.58s.25,1.22.48,1.8c.12.35.1.4-.28.47a1.46,1.46,0,0,1-.45.1l-2.52.13c.15-.85.3-1.7.4-2.55a9.45,9.45,0,0,1,.4-1.93c.22-.62.15-1.3.32-1.92a4.82,4.82,0,0,0,.23-1.55c0-.08,0-.18.15-.28m.3-4c-.3-.17-.55.13-.8.23s-.23.35-.18.52a1,1,0,0,1,0,.55c-.1.73-.23,1.48-.35,2.23a17.42,17.42,0,0,1-.43,2.2,26.89,26.89,0,0,0-.65,3.45c-.1.85-.42,1.92-.55,2.77-.07.58,0,.45-.57.6-.18,0-.4,0-.5.2.1.2.3.23.47.28.33.1.33.07.28.42l-.08.38a20.94,20.94,0,0,0-.6,3.27c0,.25.18.88.23.65.1-.4.27.15.37.18.38.1.5,0,.55-.28a4.44,4.44,0,0,0,.1-.62l.2-1.73a13.43,13.43,0,0,1,.3-1.37c.08-.23,0-.5.2-.65s.58-.08.8-.1c1-.13,1.75,0,2.73-.1.22,0,.4.07.45.32.12.7.47,1.33.65,2s.47,1.6.75,2.43a.25.25,0,0,0,.37.2c.3-.08.78.2.88-.25.05-.23.4-.15.5.12s.2.08.25.18c.12.25.3.27.42.4a.23.23,0,0,0,.23-.28c.42,0,.45-.37.47-.67a3.87,3.87,0,0,0-.37-1.78,21.18,21.18,0,0,1-.93-2.75c0-.25,0-.5,0-.72a14,14,0,0,0-.62-2.55,28.85,28.85,0,0,1-1.13-3.28,7.76,7.76,0,0,0-.5-2c-.2-.38-.25-.25-.3-.68s-.3-1.07-.42-1.62a12.69,12.69,0,0,0-.53-1.38c-.35-.95-.45-.5-.45.13,0-.23-.27-.9-.42-.85a1.23,1.23,0,0,1-.8,0M57.68,57.07a3.23,3.23,0,0,0,1.2.17.43.43,0,0,1,.55.2,9.73,9.73,0,0,1-2,0c.22.18.22.18.45.2a6.08,6.08,0,0,1,1.8.13,1,1,0,0,1,.57.3c.38.35.38.42.2.8s-.35,1-.52,1.42c-.38.88-.93,1.6-1.38,2.43a3,3,0,0,0-.2.4.5.5,0,0,1-.35.35,8.86,8.86,0,0,0-1.37,1,11.74,11.74,0,0,1-.13-1.67c0-.55-.12-1.13-.12-1.68s-.1-1.15-.08-1.72a9.65,9.65,0,0,1,0-1.7c.15-.08.35,0,.45-.15s-.28-.1-.43-.23a2.25,2.25,0,0,1,1.33-.17m-1-7a2.19,2.19,0,0,1,1.5,0,3.39,3.39,0,0,0,1.38.35c.4,0,.52.27.3.62a10.59,10.59,0,0,1-2.23,2.8s-.15.08-.17.13c-.23.45-.68.6-1.18.8a1.37,1.37,0,0,1,0-.73c.1-1.2.07-2.45.1-3.65,0-.25.07-.3.27-.35m.38-1.52L53,49c-.22,0-.45.1-.67.13a.31.31,0,0,0-.25.37,3.09,3.09,0,0,0,.1.45c.07.18.2.3.4.23a1.67,1.67,0,0,1,.7-.08c.3,0,.32.08.35.4,0,.63,0,1.28-.05,1.93a2.29,2.29,0,0,1-.08.82,3.63,3.63,0,0,0-.07,1l.07,2.85c0,1.07,0,2.12,0,3.2A9.5,9.5,0,0,1,53.35,63c0,.1,0,.22,0,.32l.37,2.5.1.7c.53,0,.6-.55.93-.72.05.05.07.1.1.12.1.28.22.53.57.53.13,0,.15.12.18.25a3.39,3.39,0,0,0,.12.45c.45-.3.8-.58,1.23-.83a25,25,0,0,0,2.27-1.75c.23-.15.45-.27.68-.45a9.66,9.66,0,0,0,1.57-1.62,11.77,11.77,0,0,0,1.65-2.18A5.24,5.24,0,0,0,63.65,59a1.13,1.13,0,0,0-.25-1.08,6.76,6.76,0,0,0-2.17-1.37,6.05,6.05,0,0,0-1.8-.35c-.78-.08-1.53-.13-2.28-.18.18-.12.15-.37.3-.45.33-.15.5-.52.93-.5a.17.17,0,0,0,.2-.17c0-.2.2-.23.32-.3s.53-.33.78-.5a9.12,9.12,0,0,0,1.57-1.53,2.63,2.63,0,0,0,.53-1.42,1.68,1.68,0,0,0-1.18-2l-.72-.25a6,6,0,0,0-2.8-.35m-7.45,7.82.12,1a6.22,6.22,0,0,1,.1.68,2.43,2.43,0,0,1,0,.7c-.08.27-.08.2-.1.3l0-.55c0-.13-.18-.45-.18-.55v-.58a5.24,5.24,0,0,1,.13-1M48,48.94s-.15,0-.2.08-.27,0-.35.17.08.33,0,.5a.38.38,0,0,0-.17,0c-.4,0-.4,0-.43.37,0,1-.1,2.33-.05,3.35,0,.85,0,1.75,0,2.63.1,1.67,0,3.35.15,5,0,.7.2,1.37.2,2.1s0,1.32,0,2a2.59,2.59,0,0,0,.17.87.32.32,0,0,0,.33.25c.62-.07.82.7,1.37-.15.1-.15.33-.12.53,0s.3.2.5-.12c.07-.15.15-.28,0-.43s-.1-.15,0-.2.1-.27.07-.42a.66.66,0,0,1,0-.5,3.19,3.19,0,0,0,.2-1.33c0-1,0-2,.17-3a5.45,5.45,0,0,0,0-2.13,5.52,5.52,0,0,1-.15-.92c-.1-.85-.1-1.7-.17-2.55C50,53.44,50,52.09,50,51a2.7,2.7,0,0,0-.68-1.65C49,49,48.45,49,48,48.94m2.43-4.57a0,0,0,0,0,0,.05c-.05,0-.13.07-.2,0a1,1,0,0,0-.65.33c-.25.32-.55.55-.8.87a1.29,1.29,0,0,0-.48.7s-.07.1-.12.13a1.81,1.81,0,0,0-.58.87c0,.18,0,.23.1.33s.13,0,.13.07-.05.1,0,.15a.2.2,0,0,0,.2-.12s0-.1.1-.1.2-.2.3-.13,0,.2,0,.33a1.27,1.27,0,0,1,.37-.13,4.55,4.55,0,0,1,.9-.85,3.87,3.87,0,0,1,.45-.35,1.44,1.44,0,0,0,.78-.55,4.61,4.61,0,0,1,.62-.52c.1,0,.25-.13.2-.3a1.27,1.27,0,0,0-.52-.68c-.25-.17-.53-.05-.8-.12m-11.9,21c.1,0,.07.08.1.13s-.05.15-.15.12-.08,0,0-.07,0-.18.1-.18m.77-17.27c-.3,0-.55.07-.67.4-.05.07-.1.15-.18.15-.37,0-.65.35-1.05.3-.17,0-.32.07-.3.32.1,1.05,0,2.13,0,3.18,0,1.32.1,2.62.13,4s0,2.5.1,3.75c.1,1.47,0,3,.1,4.47a1.56,1.56,0,0,0,.37.8c.08.1.2.15.23.28-.13.42-.58.2-.83.4.23.5.55.72,1,.65.65-.13,1.5-.1,2.15-.18a20.24,20.24,0,0,1,2.05-.1c.63.05,1.23-.15,1.83-.1a1.94,1.94,0,0,0,1-.32.12.12,0,0,0,.05-.2c-.1-.15-.05-.23.07-.35s0-.23-.07-.3a.63.63,0,0,0-.38,0,.83.83,0,0,1-.42,0,1.31,1.31,0,0,0-.75-.13c-.5.05-1,.08-1.45.15a4.5,4.5,0,0,1-1,0,.28.28,0,0,1-.22-.07c-.2-.2-.2-.18-.33,0a.1.1,0,0,1-.15.07.84.84,0,0,1,0-.8,1.86,1.86,0,0,0,.2-.8,2.92,2.92,0,0,1,0-.5,14.28,14.28,0,0,0,.17-2.27,21.52,21.52,0,0,0-.42-2.55A18.72,18.72,0,0,1,40.5,55c0-1.15,0-2.28,0-3.43,0-.65,0-1.3,0-1.95a.81.81,0,0,0-.25-.87c-.15,1,0,2-.12,2.92s.25,1.93-.08,2.88c-.17-.13-.15-.3-.17-.48a5.19,5.19,0,0,1,0-1.25,25,25,0,0,1,0-3,6.31,6.31,0,0,0,.05-1c0-.08,0-.23-.07-.25-.28,0-.33-.3-.48-.45m-9,1.52a2.88,2.88,0,0,1,.77.08,1,1,0,0,1,.75.65,9.55,9.55,0,0,1,.6,2.52,18.09,18.09,0,0,1-.15,4c-.1,1-.15,2-.2,3a24.11,24.11,0,0,1-.37,2.65c-.1.62-.28,1.27-.33,1.92a1.12,1.12,0,0,1-.95.88c-.17,0-.27-.13-.35-.25s-.25-.4-.55-.38-.22-.15-.3-.25a1.38,1.38,0,0,1-.22-.35c-.08-.17-.15-.37-.25-.55.32.13.47.68.95.7-.25-.3-.5-.75-.68-1a2.6,2.6,0,0,1-.37-1.42c-.08-.93-.15-1.88-.2-2.83a27.1,27.1,0,0,1,0-2.85c.05-.82,0-1.65.08-2.47a3.77,3.77,0,0,0-.1-.88,4.15,4.15,0,0,1,.27-1.75,3.05,3.05,0,0,1,.75-1.15,1.24,1.24,0,0,1,.88-.3m-.43-1.47a1.45,1.45,0,0,0-.25.1c-.1,0-.2.12-.27.1-.33-.1-.55.12-.8.3a7.07,7.07,0,0,0-.9.52,4.48,4.48,0,0,0-1.25,1.73,11.67,11.67,0,0,0-.85,3.7l-.13,2.57a9.72,9.72,0,0,0,0,1.08c.08,1.2.15,2.42.25,3.62a3,3,0,0,0,.95,2.28c.18.15.1.25-.07.42.5,0,.62.4.82.7a2.06,2.06,0,0,0,.35.45,1.16,1.16,0,0,0,1.15.45,5.15,5.15,0,0,1,.55,0,.57.57,0,0,0,.53-.23c.1.15.2.25.17.38s.08.35.23.45a.39.39,0,0,0,.55,0,.62.62,0,0,1,.47-.15,1.75,1.75,0,0,0,1.2-.52,2.45,2.45,0,0,0,.53-.38A3.92,3.92,0,0,0,34,63.82c.18-.83.53-1.58.75-2.38a7.8,7.8,0,0,0,.38-1.85c.07-1,.07-1.9.1-2.82s0-1.75,0-2.63a6,6,0,0,0-.88-2.82,4.44,4.44,0,0,1-.42-.73,3.19,3.19,0,0,0-2-1.82,3.43,3.43,0,0,0-1.75-.08c.05-.2.35-.2.22-.4s-.3-.17-.5-.12M13,49.32a.09.09,0,0,0-.1.12.26.26,0,0,0,.18.23c.17.12.15-.1.1-.2s-.08-.15-.18-.15m5.48-.68A56.12,56.12,0,0,0,15.65,56a14.77,14.77,0,0,1-.52-1.4c-.23-.95-.53-1.9-.73-2.85a1.86,1.86,0,0,0-.3-.8,1,1,0,0,1-.25-.58.84.84,0,0,0-.4-.6c-.17.28-.17.28-.1.43a1,1,0,0,1,.13.75c-.28-.35-.45-.65-.65-.95a2.56,2.56,0,0,0-2.15-1.2.11.11,0,0,0-.15,0c-.1.25-.25.47-.13.75A11,11,0,0,1,11.13,52c.32,1.48.65,3,1,4.43a3,3,0,0,0,.42,1.2,3.12,3.12,0,0,1,.53,1.67,9.85,9.85,0,0,1,.07,2.43,18.18,18.18,0,0,0,.05,4.17.9.9,0,0,0,.2.43.29.29,0,0,0,.1-.08c.1-.12,0-.32.2-.4s.23.18.35.23a.12.12,0,0,0,.08,0c.2-.07.27.08.4.18a3.49,3.49,0,0,0,.32.25c.28.17.3.17.55-.08s.3-.25.63,0a2.37,2.37,0,0,0,.22-1.55v-.32c0-1.53,0-3,0-4.55,0-.63-.13-1.25-.1-1.88a2.41,2.41,0,0,1,.25-1.32,15.9,15.9,0,0,0,.72-2.18A11.24,11.24,0,0,0,18,51.74a.53.53,0,0,1,0-.2c.3-.65.45-1.35.7-2a.64.64,0,0,0-.35-.88" transform="translate(0 0)"/><path class="cls-3" d="M103.34,28.6a3.52,3.52,0,0,1,.44,1.68c-.07-.22-.73-1.38-.44-1.68m-5-4.5A13.05,13.05,0,0,1,99,27.3a12.68,12.68,0,0,0,.62,2.83c.25.76.29,1.56.51,2.29s.36,1.78.69,2.62c.18.51.14.58-.4.69a2.23,2.23,0,0,1-.66.14c-1.16.07-2.47.11-3.67.18.22-1.23.44-2.47.58-3.7a13.66,13.66,0,0,1,.59-2.8c.32-.91.21-1.89.47-2.8a6.63,6.63,0,0,0,.32-2.25c0-.11,0-.26.22-.4m.44-5.74c-.44-.26-.8.18-1.16.32s-.33.51-.26.77a1.55,1.55,0,0,1,0,.8c-.15,1.05-.33,2.14-.51,3.23a24.08,24.08,0,0,1-.62,3.2,40.91,40.91,0,0,0-.94,5c-.15,1.24-.62,2.8-.8,4-.11.83,0,.65-.84.87-.25,0-.58,0-.72.29.14.29.43.33.69.4.47.14.47.11.4.62l-.11.54A30.26,30.26,0,0,0,93,43.21c0,.37.26,1.27.33.95.15-.58.4.22.55.25.54.15.72,0,.8-.4.07-.29.1-.62.14-.91l.29-2.5a17.91,17.91,0,0,1,.44-2c.11-.33.07-.73.29-1s.83-.11,1.16-.14c1.45-.18,2.54-.08,4-.15a.58.58,0,0,1,.66.47c.18,1,.69,1.93.94,2.91.29,1.16.69,2.33,1.09,3.53a.37.37,0,0,0,.55.29c.43-.11,1.12.29,1.27-.37.07-.32.58-.21.72.19,0,.18.3.1.37.25.18.36.43.4.62.58a.32.32,0,0,0,.32-.4c.62-.07.66-.54.69-1a5.48,5.48,0,0,0-.54-2.58,32.44,32.44,0,0,1-1.35-4c-.07-.36,0-.72-.07-1a20.52,20.52,0,0,0-.91-3.71,41.07,41.07,0,0,1-1.63-4.76,11.84,11.84,0,0,0-.73-2.94c-.29-.55-.36-.36-.44-1-.1-.8-.43-1.56-.61-2.36a19.22,19.22,0,0,0-.77-2c-.51-1.38-.65-.73-.65.18-.07-.33-.4-1.31-.62-1.24a1.78,1.78,0,0,1-1.16,0M91.14,25a5.94,5.94,0,0,1,.32,2.62A12.69,12.69,0,0,1,91.14,25M87,21.59c.29,0,.36.15.25.51-.07-.11-.14-.18-.18-.25s-.15-.15-.07-.26M80.82,20a16,16,0,0,1,1.81.15c.07,0,.11.07.18.07a4,4,0,0,1,2.58,1,1.46,1.46,0,0,1,.37.33,10.82,10.82,0,0,1,2,4,4.12,4.12,0,0,1,0,1.31c0,.87-.07,1.74-.11,2.65a4.26,4.26,0,0,1-.21,1.13,37.07,37.07,0,0,1-3.24,6.86A5.41,5.41,0,0,1,83,38.52a.71.71,0,0,0-.22.3c.29.07.44-.22.73-.15A23.76,23.76,0,0,1,82,41a1.73,1.73,0,0,1-.15-.84A23.32,23.32,0,0,1,81.65,37a.13.13,0,0,0,0-.11,22,22,0,0,1-.39-3.78C81,31.58,81.11,30,81,28.5c-.11-1.93-.18-3.82-.14-5.75-.29-.69-.07-1.49-.47-2.18-.22-.36-.08-.54.4-.58m-1.6-1.89c-.55-.14-.58-.11-.44.44,0,.07,0,.14-.07.18a2.68,2.68,0,0,1-1.06,0c-.58,0-1.16,0-1.49.62-.21.43-.21.47.19.5a5.34,5.34,0,0,0,.8,0,6.52,6.52,0,0,1,0,.77c0,.36.1.8-.15,1.05a1.3,1.3,0,0,0-.22.8c-.07.76.15,1.53,0,2.29a33.65,33.65,0,0,0-.15,4.72c0,1,.08,2.07,0,3.13A47.79,47.79,0,0,0,77,37.73a18,18,0,0,1,0,3.74c-.11,1.16,0,2.29,0,3.45a.87.87,0,0,0,.69.94c.48.15.66-.18.95-.36.11-.11.14-.29.36-.36a.93.93,0,0,0,1.27.33,5.6,5.6,0,0,1,1.89-.15c0-.65,0-.8.58-1.16a10.74,10.74,0,0,0,1.89-1.42,21.59,21.59,0,0,0,1.68-1.89,10.12,10.12,0,0,0,.83-1.2c.18.15-.07.4.18.47a.27.27,0,0,0,.33-.11c.55-.83,1.6-1.34,1.74-2.5,0-.15.11-.26.22-.4a21,21,0,0,0,2.15-5.63,1.3,1.3,0,0,0,.07-.33,10.62,10.62,0,0,1,.14-2.33,10.12,10.12,0,0,0-.43-4.43c-.07-.18-.07-.4-.33-.4s-.29-.15-.33-.33a8.67,8.67,0,0,0-.43-1.45,4.84,4.84,0,0,0-3.34-2.8c-.4-.11-.84-.11-1.24-.18-1.38-.25-2.8-.55-4.22-.76-.79-.15-1.59-.18-2.39-.37M70.71,42.67c.44,0,.48.29.62.58-.65.07-.65.07-.62-.58M64.57,19a7.53,7.53,0,0,0-2.54.4.78.78,0,0,1-.58.1,2.38,2.38,0,0,0-1.49,0c-.4.11-.4.26-.4.55,0,.5.07,1,.07,1.49,0,2.36,0,4.68,0,7,0,2.08.21,4.18.07,6.25a1.33,1.33,0,0,0,0,.4,7.07,7.07,0,0,1,.14,1.49c.08,1.75.08,3.46.22,5.16a1.48,1.48,0,0,0,.18.8,2,2,0,0,1,.26.91.44.44,0,0,0,.25.51c.51.11.8.51,1.31.73a18,18,0,0,0,0-2.11c-.07-1.2-.29-2.4-.32-3.6,0-2.18-.26-4.32-.26-6.47,0-3,.07-6,.15-9,0-.07-.08-.21.18-.29.18.91.44,1.82.58,2.73a39.35,39.35,0,0,0,1.2,4.47c.58,1.89,1.24,3.74,1.63,5.67.33,1.41.84,2.72,1.17,4.14.22.91.51,1.78.76,2.69.11.4.29.69.76.72s.73.44,1.17.22c.61.37,1.3.15,2,.26.29,0,.54,0,.76.29a.27.27,0,0,0,.4.14,1,1,0,0,0,.65-1.05c0-.18,0-.33,0-.51s-.3-.65.18-1c.22-.15.11-.62.11-1-.08-1.27-.37-2.51-.44-3.78-.07-1-.33-2-.33-3,0-1.63-.07-3.23,0-4.83.08-.91,0-1.78,0-2.65,0-1.17,0-2.29,0-3.42a30,30,0,0,0-.25-3.31,1.75,1.75,0,0,0-1-.94c-.11,0-.3,0-.37.11a1.42,1.42,0,0,0-.36.76c.07,1.75,0,3.45,0,5.2a15.94,15.94,0,0,0,.07,2.18c0,.69.11,1.38.11,2.11s-.11,1.16-.11,1.7c.08,1,.11,1.89.11,2.8,0,.15,0,.33.22.4a7,7,0,0,0,0-.8c0-.25-.11-.51.07-.76a18.24,18.24,0,0,1,.18,5.41c-.11,0-.14-.11-.18-.18-.4-1.42-.83-2.83-1.23-4.25-.26-.84-.44-1.71-.73-2.54-.8-2.18-1.38-4.47-2.18-6.65-.55-1.42-.62-2.91-1.09-4.33-.18-.51-.62-.8-.73-1.31,0-.07-.14-.1-.22-.1M52.76,28.6a3.52,3.52,0,0,1,.44,1.68c-.07-.22-.73-1.38-.44-1.68m-5-4.5a13.05,13.05,0,0,1,.73,3.2,12.68,12.68,0,0,0,.62,2.83c.25.76.29,1.56.51,2.29s.36,1.78.69,2.62c.18.51.14.58-.4.69a2.23,2.23,0,0,1-.66.14c-1.16.07-2.47.11-3.67.18.22-1.23.44-2.47.58-3.7a14.36,14.36,0,0,1,.59-2.8c.32-.91.21-1.89.47-2.8a6.9,6.9,0,0,0,.33-2.25c0-.11,0-.26.21-.4m.44-5.74c-.44-.26-.8.18-1.16.32s-.33.51-.26.77a1.55,1.55,0,0,1,0,.8c-.15,1.05-.33,2.14-.51,3.23a24.08,24.08,0,0,1-.62,3.2,40.91,40.91,0,0,0-.94,5c-.15,1.24-.62,2.8-.8,4-.11.83,0,.65-.84.87-.25,0-.58,0-.72.29.14.29.43.33.69.4.47.14.47.11.4.62l-.11.54a30.26,30.26,0,0,0-.88,4.76c0,.37.26,1.27.33.95.15-.58.4.22.55.25.54.15.72,0,.8-.4.07-.29.1-.62.14-.91l.29-2.5a17.91,17.91,0,0,1,.44-2c.11-.33.07-.73.29-1s.83-.11,1.16-.14c1.45-.18,2.54-.08,4-.15a.58.58,0,0,1,.66.47c.18,1,.69,1.93.94,2.91.29,1.16.69,2.33,1.09,3.53a.37.37,0,0,0,.55.29c.43-.11,1.12.29,1.27-.37.07-.32.58-.21.72.19,0,.18.3.1.37.25.18.36.43.4.62.58a.32.32,0,0,0,.32-.4c.62-.07.66-.54.69-1a5.36,5.36,0,0,0-.54-2.58,32.44,32.44,0,0,1-1.35-4c-.07-.36,0-.72-.07-1a20.52,20.52,0,0,0-.91-3.71,41.07,41.07,0,0,1-1.63-4.76,11.84,11.84,0,0,0-.73-2.94c-.29-.55-.36-.36-.44-1-.1-.8-.43-1.56-.61-2.36a17.21,17.21,0,0,0-.77-2c-.5-1.38-.65-.73-.65.18-.07-.33-.4-1.31-.62-1.24a1.78,1.78,0,0,1-1.16,0M36.85,40.45c.29-.22,0,1.74-.11,2.14a3.67,3.67,0,0,1-.25.48,1.22,1.22,0,0,1-.15-.69c0-.08.47-1.86.51-1.93m4.58-23.29a.52.52,0,0,0-.4.62c.22.14.58,0,.4-.62M42.52,17c-.69.11-1.06,1.17-1.27,1.6-.37.44-.15-.25-.22-.51s-.33.22-.4.51a4.63,4.63,0,0,0-.55,1.56c-.36,1.39-.72,2.73-1,4.11-.26,1.09-.22,2.25-.47,3.34S38.3,29.8,38,30.86A5.71,5.71,0,0,0,37.83,32a16.2,16.2,0,0,1-.36,2.62,12.43,12.43,0,0,0-.29,1.67c-.19,1.09-.37,2.15-.66,3.2-.36-1.56-.54-3-.8-4.54s-.87-3.13-1.12-4.73a.94.94,0,0,0-.08-.32,8.23,8.23,0,0,1-.8-2c-.21-1.27-.47-2.54-.76-3.77-.22-1-.58-2-.84-2.95A5.65,5.65,0,0,0,31.73,20c-.95-2.4-1-.29-1.53-.29l-.11-.22a1.11,1.11,0,0,0-1.2-.44c-.47,0-.54.22-.44.66a6.82,6.82,0,0,1,.15,2.32c-.36-.61-.29-1.38-.69-1.89-.18.08-.18.22-.18.37a7.74,7.74,0,0,0,.25,1.6c.15.43.47.8.29,1.27-.07.14,0,.33.08.47a5.18,5.18,0,0,1,.14.66L29.11,28c.25,1.42.94,2.84,1.09,4.29a4,4,0,0,0,.22,1.31c.65,1.74.72,3.56,1.2,5.34a26,26,0,0,0,1.05,3.16c.36,1.05.4,2.22,1.13,3.12.25-.14.25-.14.51,0a.77.77,0,0,0,.5.19,1.58,1.58,0,0,0,1.31-1.28c0-.14.11-.21.29-.29.22.29-.14.73,0,1,.44-.14.62-.14.73-.8a2.89,2.89,0,0,1,.18-.8,7.09,7.09,0,0,0,.32-1.52,8.06,8.06,0,0,1,.44-1.82,8.33,8.33,0,0,0,.36-1.93c.08-.4.08-.8.19-1.2.14-.58.07-1.19.21-1.74a10.89,10.89,0,0,0,.37-1.89,20.3,20.3,0,0,1,.43-2.87c.33-1.31.58-2.62.88-3.89.25-1.09.29-2.21.54-3.3a11.88,11.88,0,0,0,.51-2.55,8.62,8.62,0,0,1,.65-2.61,2.92,2.92,0,0,0,.26-.88M23.77,28.6a3.52,3.52,0,0,1,.43,1.68c-.07-.22-.72-1.38-.43-1.68m-5.05-4.5a13,13,0,0,1,.72,3.2,12.68,12.68,0,0,0,.62,2.83c.26.76.29,1.56.51,2.29s.36,1.78.69,2.62c.18.51.15.58-.4.69a2.23,2.23,0,0,1-.65.14c-1.17.07-2.47.11-3.67.18.21-1.23.43-2.47.58-3.7a14.34,14.34,0,0,1,.58-2.8c.33-.91.22-1.89.47-2.8a6.64,6.64,0,0,0,.33-2.25c0-.11,0-.26.22-.4m.43-5.74c-.43-.26-.8.18-1.16.32s-.33.51-.25.77a1.55,1.55,0,0,1,0,.8c-.14,1.05-.33,2.14-.51,3.23a25.75,25.75,0,0,1-.61,3.2,39.13,39.13,0,0,0-.95,5c-.14,1.24-.62,2.8-.8,4-.11.83,0,.65-.83.87-.26,0-.59,0-.73.29.14.29.43.33.69.4.47.14.47.11.4.62l-.11.54a29.13,29.13,0,0,0-.87,4.76c0,.37.25,1.27.32.95.15-.58.4.22.55.25.55.15.73,0,.8-.4a7.15,7.15,0,0,0,.14-.91l.3-2.5a20.4,20.4,0,0,1,.43-2c.11-.33.07-.73.29-1s.84-.11,1.16-.14c1.46-.18,2.55-.08,4-.15a.57.57,0,0,1,.65.47c.18,1,.69,1.93.94,2.91.3,1.16.69,2.33,1.09,3.53a.37.37,0,0,0,.55.29c.44-.11,1.13.29,1.27-.37.07-.32.58-.21.73.19,0,.18.29.1.36.25.18.36.44.4.62.58a.32.32,0,0,0,.33-.4c.61-.07.65-.54.69-1a5.49,5.49,0,0,0-.55-2.58,32.38,32.38,0,0,1-1.34-4c-.08-.36,0-.72-.08-1a20.51,20.51,0,0,0-.9-3.71,43.09,43.09,0,0,1-1.64-4.76,11.41,11.41,0,0,0-.73-2.94c-.29-.55-.36-.36-.43-1-.11-.8-.44-1.56-.62-2.36a19.17,19.17,0,0,0-.76-2c-.51-1.38-.66-.73-.66.18-.07-.33-.4-1.31-.61-1.24a1.81,1.81,0,0,1-1.17,0M2.08,43c.14,0,.1.11.14.19s-.07.21-.22.18-.11,0-.07-.11,0-.26.15-.26M3.2,17.89c-.43,0-.8.1-1,.58-.07.11-.14.21-.25.21-.55,0-.95.51-1.53.44a.39.39,0,0,0-.44.47c.15,1.53,0,3.09.08,4.62C.11,26.13.22,28,.26,30s0,3.63.14,5.45c.15,2.14,0,4.32.15,6.5a2.38,2.38,0,0,0,.54,1.17c.11.14.29.22.33.4-.18.61-.83.29-1.2.58.33.72.8,1.05,1.46.94.94-.18,2.18-.14,3.12-.25a29.73,29.73,0,0,1,3-.15c.91.08,1.78-.21,2.65-.14A2.9,2.9,0,0,0,12,44a.18.18,0,0,0,.07-.3c-.14-.21-.07-.32.11-.5s.07-.33-.11-.44a.93.93,0,0,0-.54-.07,1.16,1.16,0,0,1-.62-.08,2,2,0,0,0-1.09-.18c-.73.08-1.42.11-2.11.22a6.88,6.88,0,0,1-1.49.07.4.4,0,0,1-.33-.11c-.29-.29-.29-.25-.47.08,0,.11-.11.14-.22.11a1.21,1.21,0,0,1,0-1.17,2.62,2.62,0,0,0,.29-1.16,6.21,6.21,0,0,1,.07-.73,20.12,20.12,0,0,0,.26-3.3,33,33,0,0,0-.62-3.71A26.33,26.33,0,0,1,5,27.84c0-1.67-.08-3.3,0-5,0-.94,0-1.89,0-2.83a1.19,1.19,0,0,0-.36-1.27c-.22,1.49.07,2.9-.18,4.25s.36,2.8-.11,4.18C4,27,4,26.75,4,26.5a7.88,7.88,0,0,1,0-1.82,33.39,33.39,0,0,1,0-4.36A9.58,9.58,0,0,0,4,18.9c0-.11,0-.32-.11-.36-.4-.07-.47-.44-.69-.65" transform="translate(0 0)"/><path class="cls-3" d="M77.28,4.9a1.54,1.54,0,0,0,.27.58A1.43,1.43,0,0,0,78,5.9a1.56,1.56,0,0,0,1.62-.15,1.67,1.67,0,0,0,.48-.84h.55A2.25,2.25,0,0,1,80,6.1a2,2,0,0,1-1.33.42,2.06,2.06,0,0,1-.93-.19,1.71,1.71,0,0,1-.64-.52,2.32,2.32,0,0,1-.36-.76,3.41,3.41,0,0,1-.12-.92,3.15,3.15,0,0,1,.12-.87,2.38,2.38,0,0,1,.36-.77,1.89,1.89,0,0,1,.64-.55,2.06,2.06,0,0,1,.93-.2,1.83,1.83,0,0,1,.93.22,1.78,1.78,0,0,1,.62.57,2.24,2.24,0,0,1,.35.82,3.67,3.67,0,0,1,.09.93H77.19a2.27,2.27,0,0,0,.09.62M80,3.21a1.83,1.83,0,0,0-.29-.51,1.33,1.33,0,0,0-.45-.36,1.25,1.25,0,0,0-.59-.14,1.34,1.34,0,0,0-.61.14,1.55,1.55,0,0,0-.45.36,1.75,1.75,0,0,0-.29.52,2.93,2.93,0,0,0-.15.6h2.94A2.44,2.44,0,0,0,80,3.21M72.28,4.83a1.81,1.81,0,0,0,.26.62,1.38,1.38,0,0,0,.46.44,1.23,1.23,0,0,0,.68.17,1.42,1.42,0,0,0,.74-.17,1.48,1.48,0,0,0,.49-.44,1.83,1.83,0,0,0,.27-.62,2.74,2.74,0,0,0,.08-.7,2.71,2.71,0,0,0-.08-.69,1.74,1.74,0,0,0-.27-.62,1.63,1.63,0,0,0-.49-.45,1.53,1.53,0,0,0-.74-.17,1.32,1.32,0,0,0-.68.17,1.52,1.52,0,0,0-.46.45,1.73,1.73,0,0,0-.26.62,2.73,2.73,0,0,0,0,1.39m3,1.57V5.54h0a1.25,1.25,0,0,1-.26.4,1.48,1.48,0,0,1-.39.31,1.8,1.8,0,0,1-.47.2,1.66,1.66,0,0,1-.49.07,1.93,1.93,0,0,1-.9-.19,1.71,1.71,0,0,1-.64-.52,2.17,2.17,0,0,1-.38-.76,3.55,3.55,0,0,1,0-1.83,2.22,2.22,0,0,1,.38-.77,1.81,1.81,0,0,1,.64-.52,1.93,1.93,0,0,1,.9-.19,2,2,0,0,1,.49.06,1.49,1.49,0,0,1,.45.19A1.61,1.61,0,0,1,75,2.3a1.52,1.52,0,0,1,.25.43h0V.13h.56V6.4Zm-8-4.47a2.06,2.06,0,0,1,.68.52,2.31,2.31,0,0,1,.41.76,3.13,3.13,0,0,1,0,1.85,2.42,2.42,0,0,1-.41.76,2,2,0,0,1-1.59.7,2.07,2.07,0,0,1-.92-.19,1.9,1.9,0,0,1-.67-.51,2.23,2.23,0,0,1-.41-.76,2.83,2.83,0,0,1-.14-.93,2.81,2.81,0,0,1,.14-.92,2.14,2.14,0,0,1,.41-.76,1.92,1.92,0,0,1,.67-.52,2.07,2.07,0,0,1,.92-.19,2,2,0,0,1,.91.19m-1.61.44a1.59,1.59,0,0,0-.49.44,2.1,2.1,0,0,0-.3.62,2.37,2.37,0,0,0-.1.7,2.44,2.44,0,0,0,.1.71,2.1,2.1,0,0,0,.3.62,1.59,1.59,0,0,0,.49.44,1.59,1.59,0,0,0,1.39,0,1.62,1.62,0,0,0,.5-.44,1.86,1.86,0,0,0,.29-.62A2.45,2.45,0,0,0,68,4.13a2.38,2.38,0,0,0-.11-.7,1.86,1.86,0,0,0-.29-.62,1.62,1.62,0,0,0-.5-.44,1.51,1.51,0,0,0-1.39,0m-2.28,4H62.9V1.87h.55Zm0-5.38H62.9V.13h.55Zm-2.81.85V2.93h0a1.72,1.72,0,0,1,.66-.85,1.66,1.66,0,0,1,1-.27v.55a1.65,1.65,0,0,0-.68.1,1.55,1.55,0,0,0-.88.86,1.76,1.76,0,0,0-.12.66V6.4h-.55V1.87ZM56,4.9a1.71,1.71,0,0,0,.27.58,1.54,1.54,0,0,0,.46.42,1.34,1.34,0,0,0,.68.16,1.36,1.36,0,0,0,1-.31,1.73,1.73,0,0,0,.47-.84h.55a2.18,2.18,0,0,1-.64,1.19,1.93,1.93,0,0,1-1.33.42,2.06,2.06,0,0,1-.93-.19,1.61,1.61,0,0,1-.63-.52,2.15,2.15,0,0,1-.37-.76,3.41,3.41,0,0,1-.12-.92,3.15,3.15,0,0,1,.12-.87,2.2,2.2,0,0,1,.37-.77,1.77,1.77,0,0,1,.63-.55,2.06,2.06,0,0,1,.93-.2,1.83,1.83,0,0,1,.93.22,1.73,1.73,0,0,1,.63.57,2.41,2.41,0,0,1,.34.82,3.67,3.67,0,0,1,.09.93H55.9A2.25,2.25,0,0,0,56,4.9m2.74-1.69a1.61,1.61,0,0,0-.29-.51A1.39,1.39,0,0,0,58,2.34a1.38,1.38,0,0,0-1.21,0,1.39,1.39,0,0,0-.44.36,1.58,1.58,0,0,0-.3.52,2.39,2.39,0,0,0-.14.6h2.93a2.06,2.06,0,0,0-.11-.61M48.77,1.87v.76h0A1.76,1.76,0,0,1,49.37,2a1.68,1.68,0,0,1,.91-.23,1.49,1.49,0,0,1,.81.22,1.07,1.07,0,0,1,.49.66,1.33,1.33,0,0,1,.6-.66A1.65,1.65,0,0,1,53,1.74q1.5,0,1.5,1.59V6.4H54V3.35a1.31,1.31,0,0,0-.24-.85,1,1,0,0,0-.83-.3,1.21,1.21,0,0,0-.6.14,1.09,1.09,0,0,0-.38.36,1.77,1.77,0,0,0-.2.53,3.83,3.83,0,0,0,0,.6V6.4h-.56V3.33a2.06,2.06,0,0,0,0-.44,1.19,1.19,0,0,0-.16-.36.8.8,0,0,0-.3-.24,1,1,0,0,0-.44-.09,1.41,1.41,0,0,0-.61.13,1,1,0,0,0-.42.35,1.73,1.73,0,0,0-.25.53,2.71,2.71,0,0,0-.08.66V6.4h-.55V1.87ZM46.71,6.4V5.58h0a1.54,1.54,0,0,1-.63.7,1.84,1.84,0,0,1-.93.24,2,2,0,0,1-.73-.12,1.11,1.11,0,0,1-.49-.34,1.28,1.28,0,0,1-.28-.53,2.63,2.63,0,0,1-.09-.72V1.87h.55v3a1.51,1.51,0,0,0,.29.93,1.16,1.16,0,0,0,.92.31,1.21,1.21,0,0,0,.62-.15,1.27,1.27,0,0,0,.42-.41,2,2,0,0,0,.25-.58,3,3,0,0,0,.08-.67V1.87h.55V6.4ZM39.38.13V2.65h0A1.28,1.28,0,0,1,40,2a1.64,1.64,0,0,1,.89-.25,2.26,2.26,0,0,1,.79.12,1.19,1.19,0,0,1,.51.35,1.36,1.36,0,0,1,.28.55,3.11,3.11,0,0,1,.08.72V6.4H42V3.57A2.36,2.36,0,0,0,41.9,3a1.39,1.39,0,0,0-.18-.43.86.86,0,0,0-.36-.29,1.3,1.3,0,0,0-.56-.11,1.38,1.38,0,0,0-.59.12,1.31,1.31,0,0,0-.44.33,1.46,1.46,0,0,0-.28.49,2,2,0,0,0-.11.62V6.4h-.55V.13ZM37.16,3.92a.28.28,0,0,1-.2.14l-.26.06c-.24,0-.48.08-.73.11a4.27,4.27,0,0,0-.68.15,1.28,1.28,0,0,0-.5.28.66.66,0,0,0-.2.51.87.87,0,0,0,.08.37.89.89,0,0,0,.23.28.92.92,0,0,0,.32.18,1.21,1.21,0,0,0,.38.06A2,2,0,0,0,36.2,6a1.56,1.56,0,0,0,.51-.28,1.49,1.49,0,0,0,.34-.45,1.32,1.32,0,0,0,.13-.6V3.92ZM34.4,2.57a1.26,1.26,0,0,1,.38-.47,1.39,1.39,0,0,1,.56-.27,2.73,2.73,0,0,1,.72-.09,4,4,0,0,1,.6.05A1.43,1.43,0,0,1,37.2,2a1.18,1.18,0,0,1,.38.44,1.6,1.6,0,0,1,.15.74V5.6a.29.29,0,0,0,.33.33.47.47,0,0,0,.17,0v.46l-.17,0h-.19a.83.83,0,0,1-.34-.06.43.43,0,0,1-.19-.16.69.69,0,0,1-.1-.25c0-.1,0-.21,0-.32h0c-.1.14-.21.27-.31.39a1.3,1.3,0,0,1-.34.28,1.5,1.5,0,0,1-.43.18,2.37,2.37,0,0,1-.57.06,2.3,2.3,0,0,1-.6-.07,1.35,1.35,0,0,1-.48-.24,1.07,1.07,0,0,1-.32-.41A1.4,1.4,0,0,1,34,5.2a1.18,1.18,0,0,1,.21-.74,1.35,1.35,0,0,1,.55-.41,3.15,3.15,0,0,1,.79-.19l.88-.11.31,0a.46.46,0,0,0,.35-.27.78.78,0,0,0,0-.3,1,1,0,0,0-.09-.46.7.7,0,0,0-.26-.28,1.08,1.08,0,0,0-.38-.15,3.15,3.15,0,0,0-.46,0,1.46,1.46,0,0,0-.86.25,1,1,0,0,0-.35.81h-.55a1.75,1.75,0,0,1,.17-.69M29.29,5.14a1.3,1.3,0,0,0,.43.52,2,2,0,0,0,.66.28,4.12,4.12,0,0,0,.81.08A2.09,2.09,0,0,0,31.72,6a2.11,2.11,0,0,0,.54-.22,1.46,1.46,0,0,0,.42-.4,1,1,0,0,0,.16-.58,1,1,0,0,0-.11-.46A1.05,1.05,0,0,0,32.42,4,2.1,2.1,0,0,0,32,3.75a3.81,3.81,0,0,0-.45-.13l-1.39-.35a3.27,3.27,0,0,1-.53-.17,1.44,1.44,0,0,1-.45-.28,1.38,1.38,0,0,1-.32-.43,1.48,1.48,0,0,1-.11-.63,1.84,1.84,0,0,1,.08-.53,1.48,1.48,0,0,1,.33-.58,1.85,1.85,0,0,1,.66-.46A2.64,2.64,0,0,1,30.9,0a3.24,3.24,0,0,1,.89.12,2.24,2.24,0,0,1,.74.37,1.84,1.84,0,0,1,.5.61,1.78,1.78,0,0,1,.19.85h-.6a1.4,1.4,0,0,0-.16-.63,1.27,1.27,0,0,0-.38-.45A1.56,1.56,0,0,0,31.55.6a2.2,2.2,0,0,0-.64-.09,2.88,2.88,0,0,0-.59.06,1.52,1.52,0,0,0-.5.22,1.07,1.07,0,0,0-.35.38,1.29,1.29,0,0,0-.13.59.92.92,0,0,0,.08.38.79.79,0,0,0,.2.27,1.08,1.08,0,0,0,.31.19l.36.11,1.53.38a5,5,0,0,1,.62.21,2.07,2.07,0,0,1,.52.32,1.31,1.31,0,0,1,.35.46,1.47,1.47,0,0,1,.13.66c0,.07,0,.16,0,.28a1.4,1.4,0,0,1-.11.37,1.64,1.64,0,0,1-.23.4,1.58,1.58,0,0,1-.43.37,2.59,2.59,0,0,1-.66.26,3.74,3.74,0,0,1-.95.1,3.7,3.7,0,0,1-1-.13A2,2,0,0,1,29.21,6a1.71,1.71,0,0,1-.51-.67,2.34,2.34,0,0,1-.16-1h.6a1.61,1.61,0,0,0,.15.8" transform="translate(0 0)"/></g></g></g></svg>