<svg xmlns="http://www.w3.org/2000/svg" xmlns:xlink="http://www.w3.org/1999/xlink" width="115.494" height="69.76" viewBox="0 0 115.494 69.76">
  <defs>
    <clipPath id="clip-path">
      <path id="Trazado_4" data-name="Trazado 4" d="M43.513-39.386c0,7.143,2.454,13.53,14.793,13.53h0a22.239,22.239,0,0,0,6.6-.974h0V-42.561H54.661v3.572h5.81v9.273a7.4,7.4,0,0,1-2.886.325h0c-5.81,0-9.634-3.248-9.634-10.176h0c0-5.159,2.886-10.354,10.067-10.354h0v2.886H61.59v-6.242a15.965,15.965,0,0,0-3-.216h0c-11.546,0-15.081,8.3-15.081,14.107M96.407-52.7v3.572h1.949l-8.8,22.3h4.979l2.526-6.819h10.282l2.526,6.819h5.628V-30.4h-1.947l-8.84-22.3Zm5.629,5.232c.036-.109.072-.181.108-.181h0c.036,0,.072.072.108.181h0l3.789,10.211H98.356ZM67.434-52.7v3.572h1.949v22.37h4.438V-38.52H76.6l6.206,11.69h5.3v-3.464H86.2L81.47-38.845c2.417-.433,6.241-1.84,6.241-6.747h0c0-7.071-5.267-7.108-8.19-7.108H67.434Zm6.387,3.572H79.16c1.588,0,4.077.253,4.077,3.428h0c0,3.355-3.175,3.608-4,3.608H73.821ZM24.426-52.7v3.572h1.948l-8.8,22.3H22.55l2.526-6.819H35.358l2.527,6.819h5.628V-30.4H41.565l-8.84-22.3Zm5.629,5.232c.036-.109.072-.181.108-.181h0c.036,0,.073.072.108.181h0L34.06-37.257H26.374ZM16.309-52.7l-5.485,8.84s-.036.072-.072.072h0c-.036,0-.072-.072-.072-.072h0L5.052-52.7H0v3.572H2.057s3,4.582,6.061,9.092h0V-26.83h4.438V-40.072L20.819-52.7Z" fill="none"/>
    </clipPath>
    <linearGradient id="linear-gradient" y1="0.629" x2="1" y2="0.629" gradientUnits="objectBoundingBox">
      <stop offset="0" stop-color="#cfc9be"/>
      <stop offset="0.1" stop-color="#c9c3bb"/>
      <stop offset="0.2" stop-color="#c3beb8"/>
      <stop offset="0.3" stop-color="#bdb8b4"/>
      <stop offset="0.4" stop-color="#b7b2b1"/>
      <stop offset="0.5" stop-color="#b1adad"/>
      <stop offset="0.6" stop-color="#aba7aa"/>
      <stop offset="0.7" stop-color="#a6a2a6"/>
      <stop offset="0.8" stop-color="#a09da3"/>
      <stop offset="0.9" stop-color="#9b979f"/>
      <stop offset="1" stop-color="#96939c"/>
    </linearGradient>
  </defs>
  <g id="Grupo_25" data-name="Grupo 25" transform="translate(-261 -330.76)">
    <path id="Trazado_22" data-name="Trazado 22" d="M508.086,150.684a1.467,1.467,0,0,0,1.674.1.905.905,0,0,0,.383-.459h1.26a2.4,2.4,0,0,1-.928,1.341,2.73,2.73,0,0,1-1.512.4,2.961,2.961,0,0,1-1.109-.2,2.286,2.286,0,0,1-.836-.559,2.506,2.506,0,0,1-.529-.867,3.155,3.155,0,0,1-.187-1.109,3.032,3.032,0,0,1,.192-1.088,2.519,2.519,0,0,1,1.386-1.452,2.7,2.7,0,0,1,1.083-.211,2.467,2.467,0,0,1,1.159.257,2.306,2.306,0,0,1,.812.69,2.846,2.846,0,0,1,.459.988,3.679,3.679,0,0,1,.1,1.159h-3.76a1.45,1.45,0,0,0,.353,1.008m1.618-2.742a1,1,0,0,0-.781-.282,1.252,1.252,0,0,0-.57.116,1.074,1.074,0,0,0-.362.287,1.063,1.063,0,0,0-.192.363,1.664,1.664,0,0,0-.066.343h2.329a1.661,1.661,0,0,0-.358-.827m-5.609,3.327a1.479,1.479,0,0,1-.661.61,2.2,2.2,0,0,1-.922.186,2.23,2.23,0,0,1-1.028-.227,2.062,2.062,0,0,1-.731-.615,2.784,2.784,0,0,1-.433-.892,3.721,3.721,0,0,1-.146-1.048,3.5,3.5,0,0,1,.146-1.013,2.637,2.637,0,0,1,.433-.862,2.185,2.185,0,0,1,.721-.6,2.146,2.146,0,0,1,1.008-.226,2.05,2.05,0,0,1,.882.2,1.536,1.536,0,0,1,.66.58h.02v-2.621h1.432v7.2h-1.361v-.665Zm-.061-2.576a1.517,1.517,0,0,0-.206-.524,1.176,1.176,0,0,0-.378-.368,1.112,1.112,0,0,0-.585-.141,1.165,1.165,0,0,0-.6.141,1.119,1.119,0,0,0-.388.373,1.672,1.672,0,0,0-.212.529,2.923,2.923,0,0,0-.065.62,2.65,2.65,0,0,0,.07.6,1.641,1.641,0,0,0,.227.539,1.249,1.249,0,0,0,.393.383,1.06,1.06,0,0,0,.57.147,1.138,1.138,0,0,0,.59-.141,1.1,1.1,0,0,0,.378-.378,1.689,1.689,0,0,0,.2-.54,3.2,3.2,0,0,0,.061-.625,3.134,3.134,0,0,0-.061-.62m-12.569-.494a2.386,2.386,0,0,1,1.391-1.421,2.972,2.972,0,0,1,1.108-.2,3.015,3.015,0,0,1,1.114.2,2.376,2.376,0,0,1,1.4,1.421,3.2,3.2,0,0,1,.192,1.134,3.15,3.15,0,0,1-.192,1.129,2.429,2.429,0,0,1-.544.862,2.368,2.368,0,0,1-.852.55,3.1,3.1,0,0,1-1.114.191,3.055,3.055,0,0,1-1.108-.191,2.374,2.374,0,0,1-.847-.55,2.429,2.429,0,0,1-.544-.862,3.15,3.15,0,0,1-.192-1.129,3.2,3.2,0,0,1,.192-1.134m1.3,1.744a1.624,1.624,0,0,0,.206.535,1.118,1.118,0,0,0,.389.378,1.182,1.182,0,0,0,.6.141,1.215,1.215,0,0,0,.61-.141,1.1,1.1,0,0,0,.393-.378,1.6,1.6,0,0,0,.207-.535,3.072,3.072,0,0,0,.06-.61,3.142,3.142,0,0,0-.06-.614,1.556,1.556,0,0,0-.207-.535,1.149,1.149,0,0,0-.393-.378,1.185,1.185,0,0,0-.61-.146,1.152,1.152,0,0,0-.6.146,1.173,1.173,0,0,0-.389.378,1.574,1.574,0,0,0-.206.535,3.065,3.065,0,0,0-.061.614,3,3,0,0,0,.061.61m-2.46,1.991h-1.431v-5.211H490.3Zm-1.431-7.2H490.3v1.179h-1.431Zm-2.6,1.986v.967h.021a1.738,1.738,0,0,1,.272-.448,1.782,1.782,0,0,1,.393-.353,1.95,1.95,0,0,1,.474-.227,1.7,1.7,0,0,1,.524-.08,1.1,1.1,0,0,1,.312.05v1.331c-.067-.014-.148-.026-.242-.036a2.579,2.579,0,0,0-.272-.015,1.528,1.528,0,0,0-.665.131,1.159,1.159,0,0,0-.439.358,1.433,1.433,0,0,0-.236.529,2.829,2.829,0,0,0-.071.655v2.349h-1.431v-5.211Zm-5.614,3.961a1.465,1.465,0,0,0,1.673.1.9.9,0,0,0,.383-.459h1.26a2.389,2.389,0,0,1-.927,1.341,2.73,2.73,0,0,1-1.512.4,2.957,2.957,0,0,1-1.109-.2,2.3,2.3,0,0,1-.837-.559,2.537,2.537,0,0,1-.529-.867,3.179,3.179,0,0,1-.186-1.109,3.053,3.053,0,0,1,.191-1.088,2.527,2.527,0,0,1,1.386-1.452,2.7,2.7,0,0,1,1.084-.211,2.47,2.47,0,0,1,1.159.257,2.315,2.315,0,0,1,.812.69,2.845,2.845,0,0,1,.458.988,3.679,3.679,0,0,1,.1,1.159h-3.76a1.445,1.445,0,0,0,.353,1.008m1.618-2.742a1.007,1.007,0,0,0-.781-.282,1.249,1.249,0,0,0-.57.116,1.088,1.088,0,0,0-.363.287,1.077,1.077,0,0,0-.191.363,1.664,1.664,0,0,0-.066.343h2.329a1.67,1.67,0,0,0-.358-.827m-10.892-1.219v.7h.021a2.041,2.041,0,0,1,.68-.625,1.852,1.852,0,0,1,.912-.221,2.107,2.107,0,0,1,.9.191,1.266,1.266,0,0,1,.62.675,2.239,2.239,0,0,1,.63-.6,1.676,1.676,0,0,1,.943-.262,2.789,2.789,0,0,1,.766.1,1.553,1.553,0,0,1,.6.323,1.476,1.476,0,0,1,.393.58,2.346,2.346,0,0,1,.141.861v3.488h-1.431v-2.953c0-.175-.007-.34-.021-.494a1.055,1.055,0,0,0-.11-.4.68.68,0,0,0-.268-.272.966.966,0,0,0-.478-.1.908.908,0,0,0-.489.116.839.839,0,0,0-.293.3,1.228,1.228,0,0,0-.141.423,3.323,3.323,0,0,0-.035.479v2.9H473.3v-2.923c0-.155,0-.308-.01-.459a1.306,1.306,0,0,0-.086-.418.641.641,0,0,0-.252-.307.946.946,0,0,0-.519-.116,1.082,1.082,0,0,0-.267.045.881.881,0,0,0-.323.171,1,1,0,0,0-.267.363,1.473,1.473,0,0,0-.111.62v3.024h-1.431v-5.211Zm-3.84,5.211v-.726h-.03a1.608,1.608,0,0,1-.706.655,2.072,2.072,0,0,1-.887.2,2.5,2.5,0,0,1-.942-.151,1.364,1.364,0,0,1-.58-.428,1.678,1.678,0,0,1-.3-.676,4.2,4.2,0,0,1-.086-.882v-3.2h1.431v2.943a1.832,1.832,0,0,0,.2.963.782.782,0,0,0,.716.317.99.99,0,0,0,.846-.348,1.928,1.928,0,0,0,.263-1.144v-2.731h1.431v5.211Zm-8.074-7.2v2.711h.03a1.667,1.667,0,0,1,.7-.66,1.886,1.886,0,0,1,.826-.206,2.433,2.433,0,0,1,.943.156,1.411,1.411,0,0,1,.58.433,1.677,1.677,0,0,1,.3.676,4.2,4.2,0,0,1,.086.882v3.205H461.5v-2.943a1.833,1.833,0,0,0-.2-.963.781.781,0,0,0-.716-.317.994.994,0,0,0-.847.347,1.933,1.933,0,0,0-.262,1.144v2.732H458.04v-7.2Zm-3.971,5.181a2.924,2.924,0,0,1-.025.323,1.086,1.086,0,0,1-.137.4.955.955,0,0,1-.342.338,1.267,1.267,0,0,1-.655.141,1.726,1.726,0,0,1-.333-.031.8.8,0,0,1-.282-.105.547.547,0,0,1-.192-.207.674.674,0,0,1-.07-.323.7.7,0,0,1,.07-.332.634.634,0,0,1,.187-.217.949.949,0,0,1,.272-.136,2.494,2.494,0,0,1,.317-.081c.115-.02.229-.037.343-.05s.223-.03.328-.051a2.347,2.347,0,0,0,.292-.075.638.638,0,0,0,.227-.126Zm-1.875-1.593a.81.81,0,0,1,.282-.6,1.085,1.085,0,0,1,.665-.182,2.505,2.505,0,0,1,.358.025.814.814,0,0,1,.293.1.562.562,0,0,1,.2.212.752.752,0,0,1,.076.368.387.387,0,0,1-.131.337.954.954,0,0,1-.383.177,4.02,4.02,0,0,1-.555.091q-.312.03-.635.08a6.182,6.182,0,0,0-.64.136,1.819,1.819,0,0,0-.564.257,1.317,1.317,0,0,0-.4.459,1.52,1.52,0,0,0-.156.731,1.641,1.641,0,0,0,.136.695,1.314,1.314,0,0,0,.378.484,1.588,1.588,0,0,0,.565.282,2.539,2.539,0,0,0,.7.091,3.239,3.239,0,0,0,.948-.141,1.863,1.863,0,0,0,.806-.494,2.372,2.372,0,0,0,.035.257,2.089,2.089,0,0,0,.066.247h1.452a1.207,1.207,0,0,1-.142-.484,5.418,5.418,0,0,1-.04-.675v-2.712a1.25,1.25,0,0,0-.212-.761,1.444,1.444,0,0,0-.544-.448,2.425,2.425,0,0,0-.736-.217,5.833,5.833,0,0,0-.8-.055,4.4,4.4,0,0,0-.862.085,2.434,2.434,0,0,0-.771.288,1.707,1.707,0,0,0-.565.534,1.667,1.667,0,0,0-.251.836Zm-6.552,1.835a1.135,1.135,0,0,0,.348.408,1.5,1.5,0,0,0,.509.232,2.423,2.423,0,0,0,.605.076,3.081,3.081,0,0,0,.453-.036,1.541,1.541,0,0,0,.454-.136.992.992,0,0,0,.353-.277.694.694,0,0,0,.141-.448.63.63,0,0,0-.187-.474,1.478,1.478,0,0,0-.489-.3,4.888,4.888,0,0,0-.685-.211c-.256-.061-.514-.128-.776-.2a6.708,6.708,0,0,1-.786-.247,2.674,2.674,0,0,1-.686-.378,1.691,1.691,0,0,1-.675-1.421,1.883,1.883,0,0,1,.237-.963,2.124,2.124,0,0,1,.62-.68,2.679,2.679,0,0,1,.866-.4,3.668,3.668,0,0,1,.968-.131,4.584,4.584,0,0,1,1.084.126,2.706,2.706,0,0,1,.922.408,2.057,2.057,0,0,1,.64.721,2.206,2.206,0,0,1,.237,1.063h-1.532a1.284,1.284,0,0,0-.136-.534.9.9,0,0,0-.308-.333,1.277,1.277,0,0,0-.438-.171,2.675,2.675,0,0,0-.539-.051,1.857,1.857,0,0,0-.384.041,1.031,1.031,0,0,0-.347.141.858.858,0,0,0-.257.252.67.67,0,0,0-.1.383.647.647,0,0,0,.081.343.708.708,0,0,0,.317.241,4.049,4.049,0,0,0,.655.222q.418.111,1.094.283c.134.026.321.075.559.146a2.671,2.671,0,0,1,.711.337,2.173,2.173,0,0,1,.61.62,1.769,1.769,0,0,1,.257.993,2.194,2.194,0,0,1-.192.917,1.979,1.979,0,0,1-.569.731,2.737,2.737,0,0,1-.938.479,4.437,4.437,0,0,1-1.3.171,4.568,4.568,0,0,1-1.154-.146,2.9,2.9,0,0,1-.988-.458,2.265,2.265,0,0,1-.68-.8,2.371,2.371,0,0,1-.242-1.149h1.532a1.325,1.325,0,0,0,.131.615" transform="translate(-159.41 186.434)"/>
    <path id="Trazado_2" data-name="Trazado 2" d="M0,0H115.494V-69.76H0Z" transform="translate(261 400.52)" fill="none"/>
    <g id="Grupo_4" data-name="Grupo 4" transform="translate(261 400.52)" clip-path="url(#clip-path)">
      <g id="Grupo_3" data-name="Grupo 3" transform="translate(0 -25.856)">
        <path id="Trazado_3" data-name="Trazado 3" d="M0-43.9H115.494v69.76H0Z" fill="url(#linear-gradient)"/>
      </g>
    </g>
    <g id="Grupo_5" data-name="Grupo 5" transform="translate(288.745 390.3)">
      <path id="Trazado_5" data-name="Trazado 5" d="M0,0,4.172,6.706H4.2V0H6.258V10H4.06L-.1,3.3H-.126V10H-2.184V0ZM13.3,6.132,12.04,2.464h-.028l-1.3,3.668ZM13.174,0l3.738,10H14.63L13.874,7.77H10.136L9.352,10H7.14L10.92,0Zm2.534,1.848V0H23.9V1.848h-3V10H18.7V1.848ZM32.4,9.233a4.62,4.62,0,0,1-3.136.987,4.6,4.6,0,0,1-3.143-.98A3.822,3.822,0,0,1,25,6.216V0h2.2V6.216a4.494,4.494,0,0,0,.07.8A1.552,1.552,0,0,0,28.189,8.2a2.532,2.532,0,0,0,1.071.189,2.06,2.06,0,0,0,1.624-.525,2.5,2.5,0,0,0,.448-1.645V0h2.2V6.216A3.789,3.789,0,0,1,32.4,9.233m7.63-4.711a1.663,1.663,0,0,0,1.134-.336,1.4,1.4,0,0,0,.378-1.092,1.332,1.332,0,0,0-.378-1.057,1.689,1.689,0,0,0-1.134-.329H37.618V4.522ZM40.81,0a3.214,3.214,0,0,1,1.211.217,2.8,2.8,0,0,1,.924.595,2.606,2.606,0,0,1,.588.875,2.809,2.809,0,0,1,.2,1.071,3.008,3.008,0,0,1-.371,1.526,2.335,2.335,0,0,1-1.211.98v.028a1.709,1.709,0,0,1,.672.343,1.908,1.908,0,0,1,.434.546,2.564,2.564,0,0,1,.245.693,6.133,6.133,0,0,1,.1.756c.009.159.018.345.028.56s.025.434.049.658a4.289,4.289,0,0,0,.112.637A1.456,1.456,0,0,0,44.03,10h-2.2a3.849,3.849,0,0,1-.224-1.134q-.042-.659-.126-1.26a1.992,1.992,0,0,0-.476-1.148,1.636,1.636,0,0,0-1.19-.364h-2.2V10h-2.2V0Zm9.828,6.132-1.26-3.668H49.35l-1.3,3.668ZM50.512,0,54.25,10H51.968L51.212,7.77H47.474L46.69,10H44.478l3.78-10Zm6.8,0V8.148h4.872V10h-7.07V0Z" fill="#2b2e34"/>
    </g>
    <path id="Trazado_6" data-name="Trazado 6" d="M0,0H115.494V-69.76H0Z" transform="translate(261 400.52)" fill="none"/>
  </g>
</svg>
